solid ascii
  facet normal -9.995016e-001 3.156824e-002 0.000000e+000
    outer loop
      vertex   -1.776857e+002 8.566865e-001 2.285000e+001
      vertex   -1.775609e+002 4.810040e+000 2.285000e+001
      vertex   -1.776857e+002 8.566865e-001 2.252362e+001
    endloop
  endfacet
  facet normal -8.219558e-002 2.596064e-003 6.938894e-018
    outer loop
      vertex   -1.776857e+002 8.566865e-001 2.252362e+001
      vertex   -1.775609e+002 4.810040e+000 2.285000e+001
      vertex   -1.775609e+002 4.810040e+000 2.252362e+001
    endloop
  endfacet
  facet normal 4.724143e-001 -8.813766e-001 0.000000e+000
    outer loop
      vertex   -1.775609e+002 4.810040e+000 2.285000e+001
      vertex   -1.810470e+002 2.941489e+000 2.285000e+001
      vertex   -1.775609e+002 4.810040e+000 2.252362e+001
    endloop
  endfacet
  facet normal 3.884974e-002 -7.248142e-002 0.000000e+000
    outer loop
      vertex   -1.775609e+002 4.810040e+000 2.252362e+001
      vertex   -1.810470e+002 2.941489e+000 2.285000e+001
      vertex   -1.810470e+002 2.941489e+000 2.252362e+001
    endloop
  endfacet
  facet normal 5.270888e-001 8.498102e-001 0.000000e+000
    outer loop
      vertex   -1.810470e+002 2.941489e+000 2.285000e+001
      vertex   -1.776857e+002 8.566865e-001 2.285000e+001
      vertex   -1.810470e+002 2.941489e+000 2.252362e+001
    endloop
  endfacet
  facet normal 4.334609e-002 6.988565e-002 0.000000e+000
    outer loop
      vertex   -1.810470e+002 2.941489e+000 2.252362e+001
      vertex   -1.776857e+002 8.566865e-001 2.285000e+001
      vertex   -1.776857e+002 8.566865e-001 2.252362e+001
    endloop
  endfacet
  facet normal -0.000000e+000 0.000000e+000 8.660263e-001
    outer loop
      vertex   -1.810470e+002 2.941489e+000 2.252362e+001
      vertex   -1.776857e+002 8.566865e-001 2.252362e+001
      vertex   -1.775609e+002 4.810040e+000 2.252362e+001
    endloop
  endfacet
  facet normal 5.773374e-001 -5.773732e-001 0.000000e+000
    outer loop
      vertex   -1.593109e+002 -6.358025e+000 2.285000e+001
      vertex   -1.595110e+002 -6.558024e+000 2.265000e+001
      vertex   -1.593109e+002 -6.358025e+000 2.085000e+001
    endloop
  endfacet
  facet normal 5.069697e-001 -5.070011e-001 0.000000e+000
    outer loop
      vertex   -1.593109e+002 -6.358025e+000 2.085000e+001
      vertex   -1.595110e+002 -6.558024e+000 2.265000e+001
      vertex   -1.595110e+002 -6.558024e+000 2.105000e+001
    endloop
  endfacet
  facet normal -0.000000e+000 -5.773365e-001 -5.773392e-001
    outer loop
      vertex   -1.595110e+002 -6.558024e+000 2.105000e+001
      vertex   -1.611109e+002 -6.558024e+000 2.105000e+001
      vertex   -1.593109e+002 -6.358025e+000 2.085000e+001
    endloop
  endfacet
  facet normal -0.000000e+000 -1.097635e-001 -1.097640e-001
    outer loop
      vertex   -1.593109e+002 -6.358025e+000 2.085000e+001
      vertex   -1.611109e+002 -6.558024e+000 2.105000e+001
      vertex   -1.613109e+002 -6.358025e+000 2.085000e+001
    endloop
  endfacet
  facet normal -0.000000e+000 -1.000000e+000 -0.000000e+000
    outer loop
      vertex   -1.595110e+002 -6.558024e+000 2.265000e+001
      vertex   -1.611109e+002 -6.558024e+000 2.265000e+001
      vertex   -1.595110e+002 -6.558024e+000 2.105000e+001
    endloop
  endfacet
  facet normal 0.000000e+000 -7.071089e-001 0.000000e+000
    outer loop
      vertex   -1.595110e+002 -6.558024e+000 2.105000e+001
      vertex   -1.611109e+002 -6.558024e+000 2.265000e+001
      vertex   -1.611109e+002 -6.558024e+000 2.105000e+001
    endloop
  endfacet
  facet normal -5.773540e-001 -5.773457e-001 0.000000e+000
    outer loop
      vertex   -1.611109e+002 -6.558024e+000 2.105000e+001
      vertex   -1.611109e+002 -6.558024e+000 2.265000e+001
      vertex   -1.613109e+002 -6.358025e+000 2.085000e+001
    endloop
  endfacet
  facet normal -1.097642e-001 -1.097627e-001 0.000000e+000
    outer loop
      vertex   -1.613109e+002 -6.358025e+000 2.085000e+001
      vertex   -1.611109e+002 -6.558024e+000 2.265000e+001
      vertex   -1.613109e+002 -6.358025e+000 2.285000e+001
    endloop
  endfacet
  facet normal 0.000000e+000 -5.773402e-001 5.773374e-001
    outer loop
      vertex   -1.593109e+002 -6.358025e+000 2.285000e+001
      vertex   -1.613109e+002 -6.358025e+000 2.285000e+001
      vertex   -1.595110e+002 -6.558024e+000 2.265000e+001
    endloop
  endfacet
  facet normal 0.000000e+000 -1.097654e-001 1.097649e-001
    outer loop
      vertex   -1.595110e+002 -6.558024e+000 2.265000e+001
      vertex   -1.613109e+002 -6.358025e+000 2.285000e+001
      vertex   -1.611109e+002 -6.558024e+000 2.265000e+001
    endloop
  endfacet
  facet normal -5.773548e-001 5.773452e-001 0.000000e+000
    outer loop
      vertex   -1.854610e+002 5.091975e+000 2.105000e+001
      vertex   -1.854610e+002 5.091975e+000 2.265000e+001
      vertex   -1.852610e+002 5.291975e+000 2.085000e+001
    endloop
  endfacet
  facet normal -1.097645e-001 1.097626e-001 0.000000e+000
    outer loop
      vertex   -1.852610e+002 5.291975e+000 2.085000e+001
      vertex   -1.854610e+002 5.091975e+000 2.265000e+001
      vertex   -1.852610e+002 5.291975e+000 2.285000e+001
    endloop
  endfacet
  facet normal -5.773544e-001 0.000000e+000 5.773434e-001
    outer loop
      vertex   -1.854610e+002 5.091975e+000 2.265000e+001
      vertex   -1.854610e+002 2.919754e-001 2.265000e+001
      vertex   -1.852610e+002 5.291975e+000 2.285000e+001
    endloop
  endfacet
  facet normal -3.993631e-002 0.000000e+000 3.993554e-002
    outer loop
      vertex   -1.852610e+002 5.291975e+000 2.285000e+001
      vertex   -1.854610e+002 2.919754e-001 2.265000e+001
      vertex   -1.852610e+002 9.197544e-002 2.285000e+001
    endloop
  endfacet
  facet normal -1.000000e+000 0.000000e+000 0.000000e+000
    outer loop
      vertex   -1.854610e+002 5.091975e+000 2.105000e+001
      vertex   -1.854610e+002 2.919754e-001 2.105000e+001
      vertex   -1.854610e+002 5.091975e+000 2.265000e+001
    endloop
  endfacet
  facet normal -3.162279e-001 -0.000000e+000 0.000000e+000
    outer loop
      vertex   -1.854610e+002 5.091975e+000 2.265000e+001
      vertex   -1.854610e+002 2.919754e-001 2.105000e+001
      vertex   -1.854610e+002 2.919754e-001 2.265000e+001
    endloop
  endfacet
  facet normal -5.773525e-001 -5.773436e-001 -0.000000e+000
    outer loop
      vertex   -1.852610e+002 9.197544e-002 2.285000e+001
      vertex   -1.854610e+002 2.919754e-001 2.265000e+001
      vertex   -1.852610e+002 9.197544e-002 2.085000e+001
    endloop
  endfacet
  facet normal -5.069834e-001 -5.069757e-001 0.000000e+000
    outer loop
      vertex   -1.852610e+002 9.197544e-002 2.085000e+001
      vertex   -1.854610e+002 2.919754e-001 2.265000e+001
      vertex   -1.854610e+002 2.919754e-001 2.105000e+001
    endloop
  endfacet
  facet normal -5.773507e-001 -0.000000e+000 -5.773452e-001
    outer loop
      vertex   -1.852610e+002 5.291975e+000 2.085000e+001
      vertex   -1.852610e+002 9.197544e-002 2.085000e+001
      vertex   -1.854610e+002 5.091975e+000 2.105000e+001
    endloop
  endfacet
  facet normal -3.993593e-002 -0.000000e+000 -3.993554e-002
    outer loop
      vertex   -1.854610e+002 5.091975e+000 2.105000e+001
      vertex   -1.852610e+002 9.197544e-002 2.085000e+001
      vertex   -1.854610e+002 2.919754e-001 2.105000e+001
    endloop
  endfacet
  facet normal 0.000000e+000 0.000000e+000 -5.233920e-002
    outer loop
      vertex   -1.563609e+002 -6.358025e+000 2.085000e+001
      vertex   -1.593109e+002 -6.358025e+000 2.085000e+001
      vertex   -1.561519e+002 -6.347068e+000 2.085000e+001
    endloop
  endfacet
  facet normal 0.000000e+000 0.000000e+000 -1.344514e-003
    outer loop
      vertex   -1.561519e+002 -6.347068e+000 2.085000e+001
      vertex   -1.593109e+002 -6.358025e+000 2.085000e+001
      vertex   -1.613109e+002 -6.358025e+000 2.085000e+001
    endloop
  endfacet
  facet normal 0.000000e+000 0.000000e+000 -1.719546e-003
    outer loop
      vertex   -1.561519e+002 -6.347068e+000 2.085000e+001
      vertex   -1.613109e+002 -6.358025e+000 2.085000e+001
      vertex   -1.832610e+002 -6.358025e+000 2.085000e+001
    endloop
  endfacet
  facet normal 0.000000e+000 0.000000e+000 -5.274280e-002
    outer loop
      vertex   -1.832610e+002 -6.358025e+000 2.085000e+001
      vertex   -1.834700e+002 -6.347068e+000 2.085000e+001
      vertex   -1.561519e+002 -6.347068e+000 2.085000e+001
    endloop
  endfacet
  facet normal 0.000000e+000 0.000000e+000 -1.564310e-001
    outer loop
      vertex   -1.561519e+002 -6.347068e+000 2.085000e+001
      vertex   -1.834700e+002 -6.347068e+000 2.085000e+001
      vertex   -1.559451e+002 -6.314320e+000 2.085000e+001
    endloop
  endfacet
  facet normal -0.000000e+000 0.000000e+000 -1.189785e-003
    outer loop
      vertex   -1.559451e+002 -6.314320e+000 2.085000e+001
      vertex   -1.834700e+002 -6.347068e+000 2.085000e+001
      vertex   -1.836768e+002 -6.314320e+000 2.085000e+001
    endloop
  endfacet
  facet normal 0.000000e+000 0.000000e+000 -2.588199e-001
    outer loop
      vertex   -1.559451e+002 -6.314320e+000 2.085000e+001
      vertex   -1.836768e+002 -6.314320e+000 2.085000e+001
      vertex   -1.557429e+002 -6.260138e+000 2.085000e+001
    endloop
  endfacet
  facet normal -0.000000e+000 0.000000e+000 -1.939652e-003
    outer loop
      vertex   -1.557429e+002 -6.260138e+000 2.085000e+001
      vertex   -1.836768e+002 -6.314320e+000 2.085000e+001
      vertex   -1.838790e+002 -6.260138e+000 2.085000e+001
    endloop
  endfacet
  facet normal 0.000000e+000 0.000000e+000 -9.809371e-001
    outer loop
      vertex   -1.557429e+002 -6.260138e+000 2.085000e+001
      vertex   -1.838790e+002 -6.260138e+000 2.085000e+001
      vertex   -1.548609e+002 -1.808025e+000 2.085000e+001
    endloop
  endfacet
  facet normal 0.000000e+000 0.000000e+000 -6.849926e-002
    outer loop
      vertex   -1.548609e+002 -1.808025e+000 2.085000e+001
      vertex   -1.838790e+002 -6.260138e+000 2.085000e+001
      vertex   -1.852610e+002 -4.358025e+000 2.085000e+001
    endloop
  endfacet
  facet normal -0.000000e+000 0.000000e+000 -1.455852e-001
    outer loop
      vertex   -1.548609e+002 -1.808025e+000 2.085000e+001
      vertex   -1.852610e+002 -4.358025e+000 2.085000e+001
      vertex   -1.852610e+002 9.197544e-002 2.085000e+001
    endloop
  endfacet
  facet normal 0.000000e+000 0.000000e+000 -1.044930e-001
    outer loop
      vertex   -1.840744e+002 -6.185115e+000 2.085000e+001
      vertex   -1.842610e+002 -6.090075e+000 2.085000e+001
      vertex   -1.838790e+002 -6.260138e+000 2.085000e+001
    endloop
  endfacet
  facet normal 0.000000e+000 0.000000e+000 -5.234022e-002
    outer loop
      vertex   -1.838790e+002 -6.260138e+000 2.085000e+001
      vertex   -1.842610e+002 -6.090075e+000 2.085000e+001
      vertex   -1.844365e+002 -5.976058e+000 2.085000e+001
    endloop
  endfacet
  facet normal 0.000000e+000 0.000000e+000 -5.233744e-002
    outer loop
      vertex   -1.838790e+002 -6.260138e+000 2.085000e+001
      vertex   -1.844365e+002 -5.976058e+000 2.085000e+001
      vertex   -1.845992e+002 -5.844314e+000 2.085000e+001
    endloop
  endfacet
  facet normal 0.000000e+000 0.000000e+000 -2.588300e-001
    outer loop
      vertex   -1.845992e+002 -5.844314e+000 2.085000e+001
      vertex   -1.847472e+002 -5.696286e+000 2.085000e+001
      vertex   -1.838790e+002 -6.260138e+000 2.085000e+001
    endloop
  endfacet
  facet normal 0.000000e+000 0.000000e+000 -5.233588e-002
    outer loop
      vertex   -1.838790e+002 -6.260138e+000 2.085000e+001
      vertex   -1.847472e+002 -5.696286e+000 2.085000e+001
      vertex   -1.848790e+002 -5.533595e+000 2.085000e+001
    endloop
  endfacet
  facet normal 0.000000e+000 0.000000e+000 -5.233733e-002
    outer loop
      vertex   -1.838790e+002 -6.260138e+000 2.085000e+001
      vertex   -1.848790e+002 -5.533595e+000 2.085000e+001
      vertex   -1.849930e+002 -5.358025e+000 2.085000e+001
    endloop
  endfacet
  facet normal 0.000000e+000 0.000000e+000 -4.067087e-001
    outer loop
      vertex   -1.849930e+002 -5.358025e+000 2.085000e+001
      vertex   -1.850880e+002 -5.171498e+000 2.085000e+001
      vertex   -1.838790e+002 -6.260138e+000 2.085000e+001
    endloop
  endfacet
  facet normal 0.000000e+000 0.000000e+000 -5.233397e-002
    outer loop
      vertex   -1.838790e+002 -6.260138e+000 2.085000e+001
      vertex   -1.850880e+002 -5.171498e+000 2.085000e+001
      vertex   -1.851631e+002 -4.976058e+000 2.085000e+001
    endloop
  endfacet
  facet normal 0.000000e+000 0.000000e+000 -5.234105e-002
    outer loop
      vertex   -1.838790e+002 -6.260138e+000 2.085000e+001
      vertex   -1.851631e+002 -4.976058e+000 2.085000e+001
      vertex   -1.852172e+002 -4.773848e+000 2.085000e+001
    endloop
  endfacet
  facet normal 0.000000e+000 0.000000e+000 -5.445902e-001
    outer loop
      vertex   -1.852172e+002 -4.773848e+000 2.085000e+001
      vertex   -1.852500e+002 -4.567081e+000 2.085000e+001
      vertex   -1.838790e+002 -6.260138e+000 2.085000e+001
    endloop
  endfacet
  facet normal 0.000000e+000 0.000000e+000 -5.233617e-002
    outer loop
      vertex   -1.838790e+002 -6.260138e+000 2.085000e+001
      vertex   -1.852500e+002 -4.567081e+000 2.085000e+001
      vertex   -1.852610e+002 -4.358025e+000 2.085000e+001
    endloop
  endfacet
  facet normal 0.000000e+000 0.000000e+000 -9.980526e-001
    outer loop
      vertex   -1.852610e+002 9.197544e-002 2.085000e+001
      vertex   -1.852610e+002 5.291975e+000 2.085000e+001
      vertex   -1.548609e+002 -1.808025e+000 2.085000e+001
    endloop
  endfacet
  facet normal 0.000000e+000 0.000000e+000 -9.737939e-001
    outer loop
      vertex   -1.548609e+002 -1.808025e+000 2.085000e+001
      vertex   -1.852610e+002 5.291975e+000 2.085000e+001
      vertex   -1.548609e+002 7.191976e+000 2.085000e+001
    endloop
  endfacet
  facet normal -0.000000e+000 0.000000e+000 -6.262841e-001
    outer loop
      vertex   -1.548609e+002 7.191976e+000 2.085000e+001
      vertex   -1.852610e+002 5.291975e+000 2.085000e+001
      vertex   -1.613109e+002 1.174198e+001 2.085000e+001
    endloop
  endfacet
  facet normal 0.000000e+000 0.000000e+000 -1.811448e-001
    outer loop
      vertex   -1.548609e+002 7.191976e+000 2.085000e+001
      vertex   -1.613109e+002 1.174198e+001 2.085000e+001
      vertex   -1.593109e+002 1.174198e+001 2.085000e+001
    endloop
  endfacet
  facet normal -0.000000e+000 0.000000e+000 -2.600456e-001
    outer loop
      vertex   -1.613109e+002 1.174198e+001 2.085000e+001
      vertex   -1.852610e+002 5.291975e+000 2.085000e+001
      vertex   -1.832610e+002 1.174198e+001 2.085000e+001
    endloop
  endfacet
  facet normal 0.000000e+000 0.000000e+000 -4.659622e-001
    outer loop
      vertex   -1.832610e+002 1.174198e+001 2.085000e+001
      vertex   -1.852610e+002 5.291975e+000 2.085000e+001
      vertex   -1.852610e+002 9.741976e+000 2.085000e+001
    endloop
  endfacet
  facet normal 0.000000e+000 0.000000e+000 -5.233604e-002
    outer loop
      vertex   -1.832610e+002 1.174198e+001 2.085000e+001
      vertex   -1.852610e+002 9.741976e+000 2.085000e+001
      vertex   -1.852500e+002 9.951033e+000 2.085000e+001
    endloop
  endfacet
  facet normal 0.000000e+000 0.000000e+000 -6.292762e-001
    outer loop
      vertex   -1.852500e+002 9.951033e+000 2.085000e+001
      vertex   -1.852172e+002 1.015780e+001 2.085000e+001
      vertex   -1.832610e+002 1.174198e+001 2.085000e+001
    endloop
  endfacet
  facet normal 0.000000e+000 0.000000e+000 -5.233924e-002
    outer loop
      vertex   -1.832610e+002 1.174198e+001 2.085000e+001
      vertex   -1.852172e+002 1.015780e+001 2.085000e+001
      vertex   -1.851631e+002 1.036001e+001 2.085000e+001
    endloop
  endfacet
  facet normal 0.000000e+000 0.000000e+000 -5.233461e-002
    outer loop
      vertex   -1.832610e+002 1.174198e+001 2.085000e+001
      vertex   -1.851631e+002 1.036001e+001 2.085000e+001
      vertex   -1.850880e+002 1.055545e+001 2.085000e+001
    endloop
  endfacet
  facet normal 0.000000e+000 0.000000e+000 -4.999747e-001
    outer loop
      vertex   -1.850880e+002 1.055545e+001 2.085000e+001
      vertex   -1.849930e+002 1.074198e+001 2.085000e+001
      vertex   -1.832610e+002 1.174198e+001 2.085000e+001
    endloop
  endfacet
  facet normal 0.000000e+000 0.000000e+000 -5.233673e-002
    outer loop
      vertex   -1.832610e+002 1.174198e+001 2.085000e+001
      vertex   -1.849930e+002 1.074198e+001 2.085000e+001
      vertex   -1.848790e+002 1.091755e+001 2.085000e+001
    endloop
  endfacet
  facet normal 0.000000e+000 0.000000e+000 -5.233564e-002
    outer loop
      vertex   -1.832610e+002 1.174198e+001 2.085000e+001
      vertex   -1.848790e+002 1.091755e+001 2.085000e+001
      vertex   -1.847472e+002 1.108024e+001 2.085000e+001
    endloop
  endfacet
  facet normal 0.000000e+000 0.000000e+000 -3.583750e-001
    outer loop
      vertex   -1.847472e+002 1.108024e+001 2.085000e+001
      vertex   -1.845992e+002 1.122826e+001 2.085000e+001
      vertex   -1.832610e+002 1.174198e+001 2.085000e+001
    endloop
  endfacet
  facet normal 0.000000e+000 0.000000e+000 -5.233629e-002
    outer loop
      vertex   -1.832610e+002 1.174198e+001 2.085000e+001
      vertex   -1.845992e+002 1.122826e+001 2.085000e+001
      vertex   -1.844365e+002 1.136001e+001 2.085000e+001
    endloop
  endfacet
  facet normal 0.000000e+000 0.000000e+000 -5.233720e-002
    outer loop
      vertex   -1.832610e+002 1.174198e+001 2.085000e+001
      vertex   -1.844365e+002 1.136001e+001 2.085000e+001
      vertex   -1.842610e+002 1.147403e+001 2.085000e+001
    endloop
  endfacet
  facet normal 0.000000e+000 0.000000e+000 -2.078833e-001
    outer loop
      vertex   -1.842610e+002 1.147403e+001 2.085000e+001
      vertex   -1.840744e+002 1.156907e+001 2.085000e+001
      vertex   -1.832610e+002 1.174198e+001 2.085000e+001
    endloop
  endfacet
  facet normal 0.000000e+000 0.000000e+000 -5.233779e-002
    outer loop
      vertex   -1.832610e+002 1.174198e+001 2.085000e+001
      vertex   -1.840744e+002 1.156907e+001 2.085000e+001
      vertex   -1.838790e+002 1.164409e+001 2.085000e+001
    endloop
  endfacet
  facet normal 0.000000e+000 0.000000e+000 -5.233591e-002
    outer loop
      vertex   -1.832610e+002 1.174198e+001 2.085000e+001
      vertex   -1.838790e+002 1.164409e+001 2.085000e+001
      vertex   -1.836768e+002 1.169827e+001 2.085000e+001
    endloop
  endfacet
  facet normal 0.000000e+000 0.000000e+000 -5.232823e-002
    outer loop
      vertex   -1.836768e+002 1.169827e+001 2.085000e+001
      vertex   -1.834700e+002 1.173102e+001 2.085000e+001
      vertex   -1.832610e+002 1.174198e+001 2.085000e+001
    endloop
  endfacet
  facet normal -0.000000e+000 -0.000000e+000 -6.293228e-001
    outer loop
      vertex   -1.563609e+002 1.174198e+001 2.085000e+001
      vertex   -1.544047e+002 1.015780e+001 2.085000e+001
      vertex   -1.593109e+002 1.174198e+001 2.085000e+001
    endloop
  endfacet
  facet normal 0.000000e+000 0.000000e+000 -3.553617e-002
    outer loop
      vertex   -1.593109e+002 1.174198e+001 2.085000e+001
      vertex   -1.544047e+002 1.015780e+001 2.085000e+001
      vertex   -1.543719e+002 9.951033e+000 2.085000e+001
    endloop
  endfacet
  facet normal 0.000000e+000 0.000000e+000 -3.611323e-002
    outer loop
      vertex   -1.593109e+002 1.174198e+001 2.085000e+001
      vertex   -1.543719e+002 9.951033e+000 2.085000e+001
      vertex   -1.543609e+002 9.741976e+000 2.085000e+001
    endloop
  endfacet
  facet normal -0.000000e+000 -0.000000e+000 -1.045172e-001
    outer loop
      vertex   -1.561519e+002 1.173102e+001 2.085000e+001
      vertex   -1.559451e+002 1.169827e+001 2.085000e+001
      vertex   -1.563609e+002 1.174198e+001 2.085000e+001
    endloop
  endfacet
  facet normal 0.000000e+000 0.000000e+000 -5.233591e-002
    outer loop
      vertex   -1.563609e+002 1.174198e+001 2.085000e+001
      vertex   -1.559451e+002 1.169827e+001 2.085000e+001
      vertex   -1.557429e+002 1.164409e+001 2.085000e+001
    endloop
  endfacet
  facet normal 0.000000e+000 0.000000e+000 -5.233779e-002
    outer loop
      vertex   -1.563609e+002 1.174198e+001 2.085000e+001
      vertex   -1.557429e+002 1.164409e+001 2.085000e+001
      vertex   -1.555475e+002 1.156907e+001 2.085000e+001
    endloop
  endfacet
  facet normal -0.000000e+000 -0.000000e+000 -2.587873e-001
    outer loop
      vertex   -1.555475e+002 1.156907e+001 2.085000e+001
      vertex   -1.553609e+002 1.147403e+001 2.085000e+001
      vertex   -1.563609e+002 1.174198e+001 2.085000e+001
    endloop
  endfacet
  facet normal 0.000000e+000 0.000000e+000 -5.233720e-002
    outer loop
      vertex   -1.563609e+002 1.174198e+001 2.085000e+001
      vertex   -1.553609e+002 1.147403e+001 2.085000e+001
      vertex   -1.551854e+002 1.136001e+001 2.085000e+001
    endloop
  endfacet
  facet normal 0.000000e+000 0.000000e+000 -5.233629e-002
    outer loop
      vertex   -1.563609e+002 1.174198e+001 2.085000e+001
      vertex   -1.551854e+002 1.136001e+001 2.085000e+001
      vertex   -1.550227e+002 1.122826e+001 2.085000e+001
    endloop
  endfacet
  facet normal -0.000000e+000 -0.000000e+000 -4.067441e-001
    outer loop
      vertex   -1.550227e+002 1.122826e+001 2.085000e+001
      vertex   -1.548747e+002 1.108024e+001 2.085000e+001
      vertex   -1.563609e+002 1.174198e+001 2.085000e+001
    endloop
  endfacet
  facet normal 0.000000e+000 0.000000e+000 -5.233564e-002
    outer loop
      vertex   -1.563609e+002 1.174198e+001 2.085000e+001
      vertex   -1.548747e+002 1.108024e+001 2.085000e+001
      vertex   -1.547429e+002 1.091755e+001 2.085000e+001
    endloop
  endfacet
  facet normal 0.000000e+000 0.000000e+000 -5.233673e-002
    outer loop
      vertex   -1.563609e+002 1.174198e+001 2.085000e+001
      vertex   -1.547429e+002 1.091755e+001 2.085000e+001
      vertex   -1.546289e+002 1.074198e+001 2.085000e+001
    endloop
  endfacet
  facet normal -0.000000e+000 -0.000000e+000 -5.446132e-001
    outer loop
      vertex   -1.546289e+002 1.074198e+001 2.085000e+001
      vertex   -1.545339e+002 1.055545e+001 2.085000e+001
      vertex   -1.563609e+002 1.174198e+001 2.085000e+001
    endloop
  endfacet
  facet normal 0.000000e+000 0.000000e+000 -5.233461e-002
    outer loop
      vertex   -1.563609e+002 1.174198e+001 2.085000e+001
      vertex   -1.545339e+002 1.055545e+001 2.085000e+001
      vertex   -1.544588e+002 1.036001e+001 2.085000e+001
    endloop
  endfacet
  facet normal 0.000000e+000 0.000000e+000 -5.233924e-002
    outer loop
      vertex   -1.563609e+002 1.174198e+001 2.085000e+001
      vertex   -1.544588e+002 1.036001e+001 2.085000e+001
      vertex   -1.544047e+002 1.015780e+001 2.085000e+001
    endloop
  endfacet
  facet normal -0.000000e+000 0.000000e+000 -7.071068e-001
    outer loop
      vertex   -1.543609e+002 7.691976e+000 2.085000e+001
      vertex   -1.548609e+002 7.191976e+000 2.085000e+001
      vertex   -1.543609e+002 9.741976e+000 2.085000e+001
    endloop
  endfacet
  facet normal -0.000000e+000 0.000000e+000 -9.819356e-001
    outer loop
      vertex   -1.543609e+002 9.741976e+000 2.085000e+001
      vertex   -1.548609e+002 7.191976e+000 2.085000e+001
      vertex   -1.593109e+002 1.174198e+001 2.085000e+001
    endloop
  endfacet
  facet normal -0.000000e+000 -0.000000e+000 -7.071067e-001
    outer loop
      vertex   -1.543609e+002 -2.308025e+000 2.085000e+001
      vertex   -1.543609e+002 -4.358025e+000 2.085000e+001
      vertex   -1.548609e+002 -1.808025e+000 2.085000e+001
    endloop
  endfacet
  facet normal 0.000000e+000 -0.000000e+000 -3.794410e-001
    outer loop
      vertex   -1.548609e+002 -1.808025e+000 2.085000e+001
      vertex   -1.543609e+002 -4.358025e+000 2.085000e+001
      vertex   -1.557429e+002 -6.260138e+000 2.085000e+001
    endloop
  endfacet
  facet normal 0.000000e+000 0.000000e+000 -5.446427e-001
    outer loop
      vertex   -1.543609e+002 -4.358025e+000 2.085000e+001
      vertex   -1.543719e+002 -4.567081e+000 2.085000e+001
      vertex   -1.557429e+002 -6.260138e+000 2.085000e+001
    endloop
  endfacet
  facet normal 0.000000e+000 0.000000e+000 -5.233166e-002
    outer loop
      vertex   -1.557429e+002 -6.260138e+000 2.085000e+001
      vertex   -1.543719e+002 -4.567081e+000 2.085000e+001
      vertex   -1.544047e+002 -4.773848e+000 2.085000e+001
    endloop
  endfacet
  facet normal 0.000000e+000 0.000000e+000 -5.234105e-002
    outer loop
      vertex   -1.557429e+002 -6.260138e+000 2.085000e+001
      vertex   -1.544047e+002 -4.773848e+000 2.085000e+001
      vertex   -1.544588e+002 -4.976058e+000 2.085000e+001
    endloop
  endfacet
  facet normal 0.000000e+000 0.000000e+000 -4.067181e-001
    outer loop
      vertex   -1.544588e+002 -4.976058e+000 2.085000e+001
      vertex   -1.545339e+002 -5.171498e+000 2.085000e+001
      vertex   -1.557429e+002 -6.260138e+000 2.085000e+001
    endloop
  endfacet
  facet normal 0.000000e+000 0.000000e+000 -5.233307e-002
    outer loop
      vertex   -1.557429e+002 -6.260138e+000 2.085000e+001
      vertex   -1.545339e+002 -5.171498e+000 2.085000e+001
      vertex   -1.546289e+002 -5.358025e+000 2.085000e+001
    endloop
  endfacet
  facet normal 0.000000e+000 0.000000e+000 -5.233733e-002
    outer loop
      vertex   -1.557429e+002 -6.260138e+000 2.085000e+001
      vertex   -1.546289e+002 -5.358025e+000 2.085000e+001
      vertex   -1.547429e+002 -5.533595e+000 2.085000e+001
    endloop
  endfacet
  facet normal 0.000000e+000 0.000000e+000 -2.588187e-001
    outer loop
      vertex   -1.547429e+002 -5.533595e+000 2.085000e+001
      vertex   -1.548747e+002 -5.696286e+000 2.085000e+001
      vertex   -1.557429e+002 -6.260138e+000 2.085000e+001
    endloop
  endfacet
  facet normal 0.000000e+000 0.000000e+000 -5.233764e-002
    outer loop
      vertex   -1.557429e+002 -6.260138e+000 2.085000e+001
      vertex   -1.548747e+002 -5.696286e+000 2.085000e+001
      vertex   -1.550227e+002 -5.844314e+000 2.085000e+001
    endloop
  endfacet
  facet normal 0.000000e+000 0.000000e+000 -5.233744e-002
    outer loop
      vertex   -1.557429e+002 -6.260138e+000 2.085000e+001
      vertex   -1.550227e+002 -5.844314e+000 2.085000e+001
      vertex   -1.551854e+002 -5.976058e+000 2.085000e+001
    endloop
  endfacet
  facet normal 0.000000e+000 0.000000e+000 -1.045398e-001
    outer loop
      vertex   -1.551854e+002 -5.976058e+000 2.085000e+001
      vertex   -1.553609e+002 -6.090075e+000 2.085000e+001
      vertex   -1.557429e+002 -6.260138e+000 2.085000e+001
    endloop
  endfacet
  facet normal 0.000000e+000 0.000000e+000 -5.232002e-002
    outer loop
      vertex   -1.557429e+002 -6.260138e+000 2.085000e+001
      vertex   -1.553609e+002 -6.090075e+000 2.085000e+001
      vertex   -1.555475e+002 -6.185115e+000 2.085000e+001
    endloop
  endfacet
  facet normal -5.773521e-001 5.773438e-001 0.000000e+000
    outer loop
      vertex   -1.613109e+002 1.174198e+001 2.285000e+001
      vertex   -1.611109e+002 1.194198e+001 2.265000e+001
      vertex   -1.613109e+002 1.174198e+001 2.085000e+001
    endloop
  endfacet
  facet normal -5.069830e-001 5.069758e-001 0.000000e+000
    outer loop
      vertex   -1.613109e+002 1.174198e+001 2.085000e+001
      vertex   -1.611109e+002 1.194198e+001 2.265000e+001
      vertex   -1.611109e+002 1.194198e+001 2.105000e+001
    endloop
  endfacet
  facet normal 0.000000e+000 5.773512e-001 -5.773540e-001
    outer loop
      vertex   -1.611109e+002 1.194198e+001 2.105000e+001
      vertex   -1.595110e+002 1.194198e+001 2.105000e+001
      vertex   -1.613109e+002 1.174198e+001 2.085000e+001
    endloop
  endfacet
  facet normal 0.000000e+000 1.097644e-001 -1.097649e-001
    outer loop
      vertex   -1.613109e+002 1.174198e+001 2.085000e+001
      vertex   -1.595110e+002 1.194198e+001 2.105000e+001
      vertex   -1.593109e+002 1.174198e+001 2.085000e+001
    endloop
  endfacet
  facet normal -0.000000e+000 1.000000e+000 0.000000e+000
    outer loop
      vertex   -1.611109e+002 1.194198e+001 2.265000e+001
      vertex   -1.595110e+002 1.194198e+001 2.265000e+001
      vertex   -1.611109e+002 1.194198e+001 2.105000e+001
    endloop
  endfacet
  facet normal 0.000000e+000 7.071089e-001 0.000000e+000
    outer loop
      vertex   -1.611109e+002 1.194198e+001 2.105000e+001
      vertex   -1.595110e+002 1.194198e+001 2.265000e+001
      vertex   -1.595110e+002 1.194198e+001 2.105000e+001
    endloop
  endfacet
  facet normal 5.773392e-001 5.773751e-001 -0.000000e+000
    outer loop
      vertex   -1.595110e+002 1.194198e+001 2.105000e+001
      vertex   -1.595110e+002 1.194198e+001 2.265000e+001
      vertex   -1.593109e+002 1.174198e+001 2.085000e+001
    endloop
  endfacet
  facet normal 1.097641e-001 1.097709e-001 -0.000000e+000
    outer loop
      vertex   -1.593109e+002 1.174198e+001 2.085000e+001
      vertex   -1.595110e+002 1.194198e+001 2.265000e+001
      vertex   -1.593109e+002 1.174198e+001 2.285000e+001
    endloop
  endfacet
  facet normal -0.000000e+000 5.773548e-001 5.773521e-001
    outer loop
      vertex   -1.613109e+002 1.174198e+001 2.285000e+001
      vertex   -1.593109e+002 1.174198e+001 2.285000e+001
      vertex   -1.611109e+002 1.194198e+001 2.265000e+001
    endloop
  endfacet
  facet normal -0.000000e+000 1.097645e-001 1.097640e-001
    outer loop
      vertex   -1.611109e+002 1.194198e+001 2.265000e+001
      vertex   -1.593109e+002 1.174198e+001 2.285000e+001
      vertex   -1.595110e+002 1.194198e+001 2.265000e+001
    endloop
  endfacet
  facet normal -1.000000e+000 0.000000e+000 0.000000e+000
    outer loop
      vertex   -1.852610e+002 5.291975e+000 2.285000e+001
      vertex   -1.852610e+002 9.741976e+000 2.285000e+001
      vertex   -1.852610e+002 5.291975e+000 2.085000e+001
    endloop
  endfacet
  facet normal -4.099385e-001 0.000000e+000 0.000000e+000
    outer loop
      vertex   -1.852610e+002 5.291975e+000 2.085000e+001
      vertex   -1.852610e+002 9.741976e+000 2.285000e+001
      vertex   -1.852610e+002 9.741976e+000 2.085000e+001
    endloop
  endfacet
  facet normal -1.000000e+000 0.000000e+000 0.000000e+000
    outer loop
      vertex   -1.852610e+002 9.197544e-002 2.085000e+001
      vertex   -1.852610e+002 -4.358025e+000 2.085000e+001
      vertex   -1.852610e+002 9.197544e-002 2.285000e+001
    endloop
  endfacet
  facet normal -4.099385e-001 -0.000000e+000 0.000000e+000
    outer loop
      vertex   -1.852610e+002 9.197544e-002 2.285000e+001
      vertex   -1.852610e+002 -4.358025e+000 2.085000e+001
      vertex   -1.852610e+002 -4.358025e+000 2.285000e+001
    endloop
  endfacet
  facet normal -0.000000e+000 1.000000e+000 0.000000e+000
    outer loop
      vertex   -1.593109e+002 1.174198e+001 2.285000e+001
      vertex   -1.563609e+002 1.174198e+001 2.285000e+001
      vertex   -1.593109e+002 1.174198e+001 2.085000e+001
    endloop
  endfacet
  facet normal 0.000000e+000 5.611587e-001 0.000000e+000
    outer loop
      vertex   -1.593109e+002 1.174198e+001 2.085000e+001
      vertex   -1.563609e+002 1.174198e+001 2.285000e+001
      vertex   -1.563609e+002 1.174198e+001 2.085000e+001
    endloop
  endfacet
  facet normal 0.000000e+000 1.000000e+000 -0.000000e+000
    outer loop
      vertex   -1.613109e+002 1.174198e+001 2.085000e+001
      vertex   -1.832610e+002 1.174198e+001 2.085000e+001
      vertex   -1.613109e+002 1.174198e+001 2.285000e+001
    endloop
  endfacet
  facet normal 0.000000e+000 9.074023e-002 0.000000e+000
    outer loop
      vertex   -1.613109e+002 1.174198e+001 2.285000e+001
      vertex   -1.832610e+002 1.174198e+001 2.085000e+001
      vertex   -1.832610e+002 1.174198e+001 2.285000e+001
    endloop
  endfacet
  facet normal -0.000000e+000 -1.000000e+000 -0.000000e+000
    outer loop
      vertex   -1.613109e+002 -6.358025e+000 2.285000e+001
      vertex   -1.832610e+002 -6.358025e+000 2.285000e+001
      vertex   -1.613109e+002 -6.358025e+000 2.085000e+001
    endloop
  endfacet
  facet normal 0.000000e+000 -9.074023e-002 0.000000e+000
    outer loop
      vertex   -1.613109e+002 -6.358025e+000 2.085000e+001
      vertex   -1.832610e+002 -6.358025e+000 2.285000e+001
      vertex   -1.832610e+002 -6.358025e+000 2.085000e+001
    endloop
  endfacet
  facet normal 5.773502e-001 0.000000e+000 -5.773502e-001
    outer loop
      vertex   -1.548609e+002 -1.808025e+000 2.160000e+001
      vertex   -1.548609e+002 7.191976e+000 2.160000e+001
      vertex   -1.543609e+002 -2.308025e+000 2.210000e+001
    endloop
  endfacet
  facet normal 5.248639e-002 0.000000e+000 -5.248639e-002
    outer loop
      vertex   -1.543609e+002 -2.308025e+000 2.210000e+001
      vertex   -1.548609e+002 7.191976e+000 2.160000e+001
      vertex   -1.543609e+002 7.691976e+000 2.210000e+001
    endloop
  endfacet
  facet normal 7.071069e-001 7.071067e-001 -0.000000e+000
    outer loop
      vertex   -1.548609e+002 -1.808025e+000 2.085000e+001
      vertex   -1.548609e+002 -1.808025e+000 2.160000e+001
      vertex   -1.543609e+002 -2.308025e+000 2.085000e+001
    endloop
  endfacet
  facet normal 4.850713e-001 4.850712e-001 -0.000000e+000
    outer loop
      vertex   -1.543609e+002 -2.308025e+000 2.085000e+001
      vertex   -1.548609e+002 -1.808025e+000 2.160000e+001
      vertex   -1.543609e+002 -2.308025e+000 2.210000e+001
    endloop
  endfacet
  facet normal 1.000000e+000 0.000000e+000 0.000000e+000
    outer loop
      vertex   -1.548609e+002 -1.808025e+000 2.085000e+001
      vertex   -1.548609e+002 7.191976e+000 2.085000e+001
      vertex   -1.548609e+002 -1.808025e+000 2.160000e+001
    endloop
  endfacet
  facet normal 8.304548e-002 -0.000000e+000 0.000000e+000
    outer loop
      vertex   -1.548609e+002 -1.808025e+000 2.160000e+001
      vertex   -1.548609e+002 7.191976e+000 2.085000e+001
      vertex   -1.548609e+002 7.191976e+000 2.160000e+001
    endloop
  endfacet
  facet normal 7.071068e-001 -7.071068e-001 0.000000e+000
    outer loop
      vertex   -1.548609e+002 7.191976e+000 2.085000e+001
      vertex   -1.543609e+002 7.691976e+000 2.085000e+001
      vertex   -1.548609e+002 7.191976e+000 2.160000e+001
    endloop
  endfacet
  facet normal 7.001401e-001 -7.001401e-001 0.000000e+000
    outer loop
      vertex   -1.548609e+002 7.191976e+000 2.160000e+001
      vertex   -1.543609e+002 7.691976e+000 2.085000e+001
      vertex   -1.543609e+002 7.691976e+000 2.210000e+001
    endloop
  endfacet
  facet normal 9.986296e-001 5.233407e-002 -0.000000e+000
    outer loop
      vertex   -1.543609e+002 9.741976e+000 2.085000e+001
      vertex   -1.543719e+002 9.951033e+000 2.085000e+001
      vertex   -1.543609e+002 9.741976e+000 2.285000e+001
    endloop
  endfacet
  facet normal 9.932036e-001 5.204972e-002 0.000000e+000
    outer loop
      vertex   -1.543609e+002 9.741976e+000 2.285000e+001
      vertex   -1.543719e+002 9.951033e+000 2.085000e+001
      vertex   -1.543719e+002 9.951033e+000 2.285000e+001
    endloop
  endfacet
  facet normal 1.028213e-001 1.629131e-002 0.000000e+000
    outer loop
      vertex   -1.543719e+002 9.951033e+000 2.285000e+001
      vertex   -1.543719e+002 9.951033e+000 2.085000e+001
      vertex   -1.544047e+002 1.015780e+001 2.085000e+001
    endloop
  endfacet
  facet normal 9.823128e-001 1.556405e-001 0.000000e+000
    outer loop
      vertex   -1.543719e+002 9.951033e+000 2.285000e+001
      vertex   -1.544047e+002 1.015780e+001 2.085000e+001
      vertex   -1.544047e+002 1.015780e+001 2.285000e+001
    endloop
  endfacet
  facet normal 1.005559e-001 2.693719e-002 0.000000e+000
    outer loop
      vertex   -1.544047e+002 1.015780e+001 2.285000e+001
      vertex   -1.544047e+002 1.015780e+001 2.085000e+001
      vertex   -1.544588e+002 1.036001e+001 2.085000e+001
    endloop
  endfacet
  facet normal 9.606936e-001 2.573533e-001 -3.469447e-018
    outer loop
      vertex   -1.544047e+002 1.015780e+001 2.285000e+001
      vertex   -1.544588e+002 1.036001e+001 2.085000e+001
      vertex   -1.544588e+002 1.036001e+001 2.285000e+001
    endloop
  endfacet
  facet normal 9.718870e-002 3.730990e-002 0.000000e+000
    outer loop
      vertex   -1.544588e+002 1.036001e+001 2.285000e+001
      vertex   -1.544588e+002 1.036001e+001 2.085000e+001
      vertex   -1.545339e+002 1.055545e+001 2.085000e+001
    endloop
  endfacet
  facet normal 9.284992e-001 3.564428e-001 -6.938894e-018
    outer loop
      vertex   -1.544588e+002 1.036001e+001 2.285000e+001
      vertex   -1.545339e+002 1.055545e+001 2.085000e+001
      vertex   -1.545339e+002 1.055545e+001 2.285000e+001
    endloop
  endfacet
  facet normal 9.275686e-002 4.726527e-002 0.000000e+000
    outer loop
      vertex   -1.545339e+002 1.055545e+001 2.285000e+001
      vertex   -1.545339e+002 1.055545e+001 2.085000e+001
      vertex   -1.546289e+002 1.074198e+001 2.085000e+001
    endloop
  endfacet
  facet normal 8.861524e-001 4.515486e-001 0.000000e+000
    outer loop
      vertex   -1.545339e+002 1.055545e+001 2.285000e+001
      vertex   -1.546289e+002 1.074198e+001 2.085000e+001
      vertex   -1.546289e+002 1.074198e+001 2.285000e+001
    endloop
  endfacet
  facet normal 8.730827e-002 5.669709e-002 0.000000e+000
    outer loop
      vertex   -1.546289e+002 1.074198e+001 2.285000e+001
      vertex   -1.546289e+002 1.074198e+001 2.085000e+001
      vertex   -1.547429e+002 1.091755e+001 2.085000e+001
    endloop
  endfacet
  facet normal 8.341205e-001 5.416693e-001 0.000000e+000
    outer loop
      vertex   -1.546289e+002 1.074198e+001 2.285000e+001
      vertex   -1.547429e+002 1.091755e+001 2.085000e+001
      vertex   -1.547429e+002 1.091755e+001 2.285000e+001
    endloop
  endfacet
  facet normal 8.090310e-002 6.551427e-002 0.000000e+000
    outer loop
      vertex   -1.547429e+002 1.091755e+001 2.285000e+001
      vertex   -1.547429e+002 1.091755e+001 2.085000e+001
      vertex   -1.548747e+002 1.108024e+001 2.085000e+001
    endloop
  endfacet
  facet normal 7.729222e-001 6.259024e-001 -6.938894e-018
    outer loop
      vertex   -1.547429e+002 1.091755e+001 2.285000e+001
      vertex   -1.548747e+002 1.108024e+001 2.085000e+001
      vertex   -1.548747e+002 1.108024e+001 2.285000e+001
    endloop
  endfacet
  facet normal 7.361204e-002 7.361062e-002 0.000000e+000
    outer loop
      vertex   -1.548747e+002 1.108024e+001 2.285000e+001
      vertex   -1.548747e+002 1.108024e+001 2.085000e+001
      vertex   -1.550227e+002 1.122826e+001 2.085000e+001
    endloop
  endfacet
  facet normal 7.032716e-001 7.032580e-001 0.000000e+000
    outer loop
      vertex   -1.548747e+002 1.108024e+001 2.285000e+001
      vertex   -1.550227e+002 1.122826e+001 2.085000e+001
      vertex   -1.550227e+002 1.122826e+001 2.285000e+001
    endloop
  endfacet
  facet normal 6.551428e-002 8.090262e-002 0.000000e+000
    outer loop
      vertex   -1.550227e+002 1.122826e+001 2.285000e+001
      vertex   -1.550227e+002 1.122826e+001 2.085000e+001
      vertex   -1.551854e+002 1.136001e+001 2.085000e+001
    endloop
  endfacet
  facet normal 6.259046e-001 7.729204e-001 0.000000e+000
    outer loop
      vertex   -1.550227e+002 1.122826e+001 2.285000e+001
      vertex   -1.551854e+002 1.136001e+001 2.085000e+001
      vertex   -1.551854e+002 1.136001e+001 2.285000e+001
    endloop
  endfacet
  facet normal 5.669899e-002 8.730685e-002 0.000000e+000
    outer loop
      vertex   -1.551854e+002 1.136001e+001 2.285000e+001
      vertex   -1.551854e+002 1.136001e+001 2.085000e+001
      vertex   -1.553609e+002 1.147403e+001 2.085000e+001
    endloop
  endfacet
  facet normal 5.416883e-001 8.341082e-001 0.000000e+000
    outer loop
      vertex   -1.551854e+002 1.136001e+001 2.285000e+001
      vertex   -1.553609e+002 1.147403e+001 2.085000e+001
      vertex   -1.553609e+002 1.147403e+001 2.285000e+001
    endloop
  endfacet
  facet normal 4.726146e-002 9.276252e-002 0.000000e+000
    outer loop
      vertex   -1.553609e+002 1.147403e+001 2.285000e+001
      vertex   -1.553609e+002 1.147403e+001 2.085000e+001
      vertex   -1.555475e+002 1.156907e+001 2.085000e+001
    endloop
  endfacet
  facet normal 4.514977e-001 8.861779e-001 0.000000e+000
    outer loop
      vertex   -1.553609e+002 1.147403e+001 2.285000e+001
      vertex   -1.555475e+002 1.156907e+001 2.085000e+001
      vertex   -1.555475e+002 1.156907e+001 2.285000e+001
    endloop
  endfacet
  facet normal 3.730754e-002 9.718636e-002 0.000000e+000
    outer loop
      vertex   -1.555475e+002 1.156907e+001 2.285000e+001
      vertex   -1.555475e+002 1.156907e+001 2.085000e+001
      vertex   -1.557429e+002 1.164409e+001 2.085000e+001
    endloop
  endfacet
  facet normal 3.564307e-001 9.285042e-001 -6.938894e-018
    outer loop
      vertex   -1.555475e+002 1.156907e+001 2.285000e+001
      vertex   -1.557429e+002 1.164409e+001 2.085000e+001
      vertex   -1.557429e+002 1.164409e+001 2.285000e+001
    endloop
  endfacet
  facet normal 2.694383e-002 1.005554e-001 0.000000e+000
    outer loop
      vertex   -1.557429e+002 1.164409e+001 2.285000e+001
      vertex   -1.557429e+002 1.164409e+001 2.085000e+001
      vertex   -1.559451e+002 1.169827e+001 2.085000e+001
    endloop
  endfacet
  facet normal 2.574136e-001 9.606773e-001 0.000000e+000
    outer loop
      vertex   -1.557429e+002 1.164409e+001 2.285000e+001
      vertex   -1.559451e+002 1.169827e+001 2.085000e+001
      vertex   -1.559451e+002 1.169827e+001 2.285000e+001
    endloop
  endfacet
  facet normal 1.628514e-002 1.028242e-001 0.000000e+000
    outer loop
      vertex   -1.559451e+002 1.169827e+001 2.285000e+001
      vertex   -1.559451e+002 1.169827e+001 2.085000e+001
      vertex   -1.561519e+002 1.173102e+001 2.085000e+001
    endloop
  endfacet
  facet normal 1.555788e-001 9.823224e-001 0.000000e+000
    outer loop
      vertex   -1.559451e+002 1.169827e+001 2.285000e+001
      vertex   -1.561519e+002 1.173102e+001 2.085000e+001
      vertex   -1.561519e+002 1.173102e+001 2.285000e+001
    endloop
  endfacet
  facet normal 5.448618e-003 1.039548e-001 0.000000e+000
    outer loop
      vertex   -1.561519e+002 1.173102e+001 2.285000e+001
      vertex   -1.561519e+002 1.173102e+001 2.085000e+001
      vertex   -1.563609e+002 1.174198e+001 2.085000e+001
    endloop
  endfacet
  facet normal 5.205711e-002 9.932038e-001 8.673617e-019
    outer loop
      vertex   -1.561519e+002 1.173102e+001 2.285000e+001
      vertex   -1.563609e+002 1.174198e+001 2.085000e+001
      vertex   -1.563609e+002 1.174198e+001 2.285000e+001
    endloop
  endfacet
  facet normal 1.000000e+000 0.000000e+000 0.000000e+000
    outer loop
      vertex   -1.543609e+002 7.691976e+000 2.085000e+001
      vertex   -1.543609e+002 9.741976e+000 2.085000e+001
      vertex   -1.543609e+002 7.691976e+000 2.210000e+001
    endloop
  endfacet
  facet normal 7.822629e-001 -0.000000e+000 0.000000e+000
    outer loop
      vertex   -1.543609e+002 7.691976e+000 2.210000e+001
      vertex   -1.543609e+002 9.741976e+000 2.085000e+001
      vertex   -1.543609e+002 9.741976e+000 2.285000e+001
    endloop
  endfacet
  facet normal 4.012567e-001 0.000000e+000 -0.000000e+000
    outer loop
      vertex   -1.543609e+002 7.691976e+000 2.210000e+001
      vertex   -1.543609e+002 9.741976e+000 2.285000e+001
      vertex   -1.543609e+002 -4.358025e+000 2.285000e+001
    endloop
  endfacet
  facet normal 6.212046e-002 0.000000e+000 0.000000e+000
    outer loop
      vertex   -1.543609e+002 7.691976e+000 2.210000e+001
      vertex   -1.543609e+002 -4.358025e+000 2.285000e+001
      vertex   -1.543609e+002 -2.308025e+000 2.210000e+001
    endloop
  endfacet
  facet normal 7.822629e-001 0.000000e+000 0.000000e+000
    outer loop
      vertex   -1.543609e+002 -2.308025e+000 2.210000e+001
      vertex   -1.543609e+002 -4.358025e+000 2.285000e+001
      vertex   -1.543609e+002 -4.358025e+000 2.085000e+001
    endloop
  endfacet
  facet normal 8.537962e-001 0.000000e+000 0.000000e+000
    outer loop
      vertex   -1.543609e+002 -2.308025e+000 2.210000e+001
      vertex   -1.543609e+002 -4.358025e+000 2.085000e+001
      vertex   -1.543609e+002 -2.308025e+000 2.085000e+001
    endloop
  endfacet
  facet normal 5.233920e-002 -9.986294e-001 0.000000e+000
    outer loop
      vertex   -1.563609e+002 -6.358025e+000 2.085000e+001
      vertex   -1.561519e+002 -6.347068e+000 2.085000e+001
      vertex   -1.563609e+002 -6.358025e+000 2.285000e+001
    endloop
  endfacet
  facet normal 5.205485e-002 -9.932039e-001 8.673617e-019
    outer loop
      vertex   -1.563609e+002 -6.358025e+000 2.285000e+001
      vertex   -1.561519e+002 -6.347068e+000 2.085000e+001
      vertex   -1.561519e+002 -6.347068e+000 2.285000e+001
    endloop
  endfacet
  facet normal 1.628537e-002 -1.028242e-001 0.000000e+000
    outer loop
      vertex   -1.561519e+002 -6.347068e+000 2.285000e+001
      vertex   -1.561519e+002 -6.347068e+000 2.085000e+001
      vertex   -1.559451e+002 -6.314320e+000 2.085000e+001
    endloop
  endfacet
  facet normal 1.555810e-001 -9.823220e-001 0.000000e+000
    outer loop
      vertex   -1.561519e+002 -6.347068e+000 2.285000e+001
      vertex   -1.559451e+002 -6.314320e+000 2.085000e+001
      vertex   -1.559451e+002 -6.314320e+000 2.285000e+001
    endloop
  endfacet
  facet normal 2.694383e-002 -1.005554e-001 0.000000e+000
    outer loop
      vertex   -1.559451e+002 -6.314320e+000 2.285000e+001
      vertex   -1.559451e+002 -6.314320e+000 2.085000e+001
      vertex   -1.557429e+002 -6.260138e+000 2.085000e+001
    endloop
  endfacet
  facet normal 2.574136e-001 -9.606773e-001 0.000000e+000
    outer loop
      vertex   -1.559451e+002 -6.314320e+000 2.285000e+001
      vertex   -1.557429e+002 -6.260138e+000 2.085000e+001
      vertex   -1.557429e+002 -6.260138e+000 2.285000e+001
    endloop
  endfacet
  facet normal 3.730730e-002 -9.718636e-002 0.000000e+000
    outer loop
      vertex   -1.557429e+002 -6.260138e+000 2.285000e+001
      vertex   -1.557429e+002 -6.260138e+000 2.085000e+001
      vertex   -1.555475e+002 -6.185115e+000 2.085000e+001
    endloop
  endfacet
  facet normal 3.564288e-001 -9.285050e-001 0.000000e+000
    outer loop
      vertex   -1.557429e+002 -6.260138e+000 2.285000e+001
      vertex   -1.555475e+002 -6.185115e+000 2.085000e+001
      vertex   -1.555475e+002 -6.185115e+000 2.285000e+001
    endloop
  endfacet
  facet normal 4.726170e-002 -9.276252e-002 0.000000e+000
    outer loop
      vertex   -1.555475e+002 -6.185115e+000 2.285000e+001
      vertex   -1.555475e+002 -6.185115e+000 2.085000e+001
      vertex   -1.553609e+002 -6.090075e+000 2.085000e+001
    endloop
  endfacet
  facet normal 4.514995e-001 -8.861770e-001 -6.938894e-018
    outer loop
      vertex   -1.555475e+002 -6.185115e+000 2.285000e+001
      vertex   -1.553609e+002 -6.090075e+000 2.085000e+001
      vertex   -1.553609e+002 -6.090075e+000 2.285000e+001
    endloop
  endfacet
  facet normal 5.669875e-002 -8.730685e-002 0.000000e+000
    outer loop
      vertex   -1.553609e+002 -6.090075e+000 2.285000e+001
      vertex   -1.553609e+002 -6.090075e+000 2.085000e+001
      vertex   -1.551854e+002 -5.976058e+000 2.085000e+001
    endloop
  endfacet
  facet normal 5.416867e-001 -8.341093e-001 -6.938894e-018
    outer loop
      vertex   -1.553609e+002 -6.090075e+000 2.285000e+001
      vertex   -1.551854e+002 -5.976058e+000 2.085000e+001
      vertex   -1.551854e+002 -5.976058e+000 2.285000e+001
    endloop
  endfacet
  facet normal 6.551428e-002 -8.090262e-002 0.000000e+000
    outer loop
      vertex   -1.551854e+002 -5.976058e+000 2.285000e+001
      vertex   -1.551854e+002 -5.976058e+000 2.085000e+001
      vertex   -1.550227e+002 -5.844314e+000 2.085000e+001
    endloop
  endfacet
  facet normal 6.259046e-001 -7.729204e-001 0.000000e+000
    outer loop
      vertex   -1.551854e+002 -5.976058e+000 2.285000e+001
      vertex   -1.550227e+002 -5.844314e+000 2.085000e+001
      vertex   -1.550227e+002 -5.844314e+000 2.285000e+001
    endloop
  endfacet
  facet normal 7.361204e-002 -7.361062e-002 0.000000e+000
    outer loop
      vertex   -1.550227e+002 -5.844314e+000 2.285000e+001
      vertex   -1.550227e+002 -5.844314e+000 2.085000e+001
      vertex   -1.548747e+002 -5.696286e+000 2.085000e+001
    endloop
  endfacet
  facet normal 7.032716e-001 -7.032580e-001 0.000000e+000
    outer loop
      vertex   -1.550227e+002 -5.844314e+000 2.285000e+001
      vertex   -1.548747e+002 -5.696286e+000 2.085000e+001
      vertex   -1.548747e+002 -5.696286e+000 2.285000e+001
    endloop
  endfacet
  facet normal 8.090333e-002 -6.551427e-002 0.000000e+000
    outer loop
      vertex   -1.548747e+002 -5.696286e+000 2.285000e+001
      vertex   -1.548747e+002 -5.696286e+000 2.085000e+001
      vertex   -1.547429e+002 -5.533595e+000 2.085000e+001
    endloop
  endfacet
  facet normal 7.729231e-001 -6.259013e-001 -6.938894e-018
    outer loop
      vertex   -1.548747e+002 -5.696286e+000 2.285000e+001
      vertex   -1.547429e+002 -5.533595e+000 2.085000e+001
      vertex   -1.547429e+002 -5.533595e+000 2.285000e+001
    endloop
  endfacet
  facet normal 8.730827e-002 -5.669709e-002 0.000000e+000
    outer loop
      vertex   -1.547429e+002 -5.533595e+000 2.285000e+001
      vertex   -1.547429e+002 -5.533595e+000 2.085000e+001
      vertex   -1.546289e+002 -5.358025e+000 2.085000e+001
    endloop
  endfacet
  facet normal 8.341205e-001 -5.416693e-001 0.000000e+000
    outer loop
      vertex   -1.547429e+002 -5.533595e+000 2.285000e+001
      vertex   -1.546289e+002 -5.358025e+000 2.085000e+001
      vertex   -1.546289e+002 -5.358025e+000 2.285000e+001
    endloop
  endfacet
  facet normal 9.275663e-002 -4.726527e-002 0.000000e+000
    outer loop
      vertex   -1.546289e+002 -5.358025e+000 2.285000e+001
      vertex   -1.546289e+002 -5.358025e+000 2.085000e+001
      vertex   -1.545339e+002 -5.171498e+000 2.085000e+001
    endloop
  endfacet
  facet normal 8.861519e-001 -4.515495e-001 0.000000e+000
    outer loop
      vertex   -1.546289e+002 -5.358025e+000 2.285000e+001
      vertex   -1.545339e+002 -5.171498e+000 2.085000e+001
      vertex   -1.545339e+002 -5.171498e+000 2.285000e+001
    endloop
  endfacet
  facet normal 9.718870e-002 -3.730990e-002 0.000000e+000
    outer loop
      vertex   -1.545339e+002 -5.171498e+000 2.285000e+001
      vertex   -1.545339e+002 -5.171498e+000 2.085000e+001
      vertex   -1.544588e+002 -4.976058e+000 2.085000e+001
    endloop
  endfacet
  facet normal 9.284992e-001 -3.564428e-001 6.938894e-018
    outer loop
      vertex   -1.545339e+002 -5.171498e+000 2.285000e+001
      vertex   -1.544588e+002 -4.976058e+000 2.085000e+001
      vertex   -1.544588e+002 -4.976058e+000 2.285000e+001
    endloop
  endfacet
  facet normal 1.005559e-001 -2.693719e-002 0.000000e+000
    outer loop
      vertex   -1.544588e+002 -4.976058e+000 2.285000e+001
      vertex   -1.544588e+002 -4.976058e+000 2.085000e+001
      vertex   -1.544047e+002 -4.773848e+000 2.085000e+001
    endloop
  endfacet
  facet normal 9.606936e-001 -2.573533e-001 3.469447e-018
    outer loop
      vertex   -1.544588e+002 -4.976058e+000 2.285000e+001
      vertex   -1.544047e+002 -4.773848e+000 2.085000e+001
      vertex   -1.544047e+002 -4.773848e+000 2.285000e+001
    endloop
  endfacet
  facet normal 1.028216e-001 -1.629131e-002 0.000000e+000
    outer loop
      vertex   -1.544047e+002 -4.773848e+000 2.285000e+001
      vertex   -1.544047e+002 -4.773848e+000 2.085000e+001
      vertex   -1.543719e+002 -4.567081e+000 2.085000e+001
    endloop
  endfacet
  facet normal 9.823128e-001 -1.556401e-001 0.000000e+000
    outer loop
      vertex   -1.544047e+002 -4.773848e+000 2.285000e+001
      vertex   -1.543719e+002 -4.567081e+000 2.085000e+001
      vertex   -1.543719e+002 -4.567081e+000 2.285000e+001
    endloop
  endfacet
  facet normal 1.039605e-001 -5.448141e-003 0.000000e+000
    outer loop
      vertex   -1.543719e+002 -4.567081e+000 2.285000e+001
      vertex   -1.543719e+002 -4.567081e+000 2.085000e+001
      vertex   -1.543609e+002 -4.358025e+000 2.085000e+001
    endloop
  endfacet
  facet normal 9.932036e-001 -5.204972e-002 0.000000e+000
    outer loop
      vertex   -1.543719e+002 -4.567081e+000 2.285000e+001
      vertex   -1.543609e+002 -4.358025e+000 2.085000e+001
      vertex   -1.543609e+002 -4.358025e+000 2.285000e+001
    endloop
  endfacet
  facet normal 0.000000e+000 -1.000000e+000 0.000000e+000
    outer loop
      vertex   -1.593109e+002 -6.358025e+000 2.085000e+001
      vertex   -1.563609e+002 -6.358025e+000 2.085000e+001
      vertex   -1.593109e+002 -6.358025e+000 2.285000e+001
    endloop
  endfacet
  facet normal 0.000000e+000 -5.611587e-001 0.000000e+000
    outer loop
      vertex   -1.593109e+002 -6.358025e+000 2.285000e+001
      vertex   -1.563609e+002 -6.358025e+000 2.085000e+001
      vertex   -1.563609e+002 -6.358025e+000 2.285000e+001
    endloop
  endfacet
  facet normal -9.986296e-001 -5.233407e-002 0.000000e+000
    outer loop
      vertex   -1.852610e+002 -4.358025e+000 2.085000e+001
      vertex   -1.852500e+002 -4.567081e+000 2.085000e+001
      vertex   -1.852610e+002 -4.358025e+000 2.285000e+001
    endloop
  endfacet
  facet normal -9.932036e-001 -5.204972e-002 0.000000e+000
    outer loop
      vertex   -1.852610e+002 -4.358025e+000 2.285000e+001
      vertex   -1.852500e+002 -4.567081e+000 2.085000e+001
      vertex   -1.852500e+002 -4.567081e+000 2.285000e+001
    endloop
  endfacet
  facet normal -1.028216e-001 -1.629131e-002 -0.000000e+000
    outer loop
      vertex   -1.852500e+002 -4.567081e+000 2.285000e+001
      vertex   -1.852500e+002 -4.567081e+000 2.085000e+001
      vertex   -1.852172e+002 -4.773848e+000 2.085000e+001
    endloop
  endfacet
  facet normal -9.823128e-001 -1.556401e-001 0.000000e+000
    outer loop
      vertex   -1.852500e+002 -4.567081e+000 2.285000e+001
      vertex   -1.852172e+002 -4.773848e+000 2.085000e+001
      vertex   -1.852172e+002 -4.773848e+000 2.285000e+001
    endloop
  endfacet
  facet normal -1.005559e-001 -2.693719e-002 -0.000000e+000
    outer loop
      vertex   -1.852172e+002 -4.773848e+000 2.285000e+001
      vertex   -1.852172e+002 -4.773848e+000 2.085000e+001
      vertex   -1.851631e+002 -4.976058e+000 2.085000e+001
    endloop
  endfacet
  facet normal -9.606936e-001 -2.573533e-001 -3.469447e-018
    outer loop
      vertex   -1.852172e+002 -4.773848e+000 2.285000e+001
      vertex   -1.851631e+002 -4.976058e+000 2.085000e+001
      vertex   -1.851631e+002 -4.976058e+000 2.285000e+001
    endloop
  endfacet
  facet normal -9.718870e-002 -3.730990e-002 -0.000000e+000
    outer loop
      vertex   -1.851631e+002 -4.976058e+000 2.285000e+001
      vertex   -1.851631e+002 -4.976058e+000 2.085000e+001
      vertex   -1.850880e+002 -5.171498e+000 2.085000e+001
    endloop
  endfacet
  facet normal -9.284992e-001 -3.564428e-001 -6.938894e-018
    outer loop
      vertex   -1.851631e+002 -4.976058e+000 2.285000e+001
      vertex   -1.850880e+002 -5.171498e+000 2.085000e+001
      vertex   -1.850880e+002 -5.171498e+000 2.285000e+001
    endloop
  endfacet
  facet normal -9.275663e-002 -4.726527e-002 -0.000000e+000
    outer loop
      vertex   -1.850880e+002 -5.171498e+000 2.285000e+001
      vertex   -1.850880e+002 -5.171498e+000 2.085000e+001
      vertex   -1.849930e+002 -5.358025e+000 2.085000e+001
    endloop
  endfacet
  facet normal -8.861519e-001 -4.515495e-001 0.000000e+000
    outer loop
      vertex   -1.850880e+002 -5.171498e+000 2.285000e+001
      vertex   -1.849930e+002 -5.358025e+000 2.085000e+001
      vertex   -1.849930e+002 -5.358025e+000 2.285000e+001
    endloop
  endfacet
  facet normal -8.730827e-002 -5.669709e-002 -0.000000e+000
    outer loop
      vertex   -1.849930e+002 -5.358025e+000 2.285000e+001
      vertex   -1.849930e+002 -5.358025e+000 2.085000e+001
      vertex   -1.848790e+002 -5.533595e+000 2.085000e+001
    endloop
  endfacet
  facet normal -8.341205e-001 -5.416693e-001 0.000000e+000
    outer loop
      vertex   -1.849930e+002 -5.358025e+000 2.285000e+001
      vertex   -1.848790e+002 -5.533595e+000 2.085000e+001
      vertex   -1.848790e+002 -5.533595e+000 2.285000e+001
    endloop
  endfacet
  facet normal -8.090333e-002 -6.551427e-002 -0.000000e+000
    outer loop
      vertex   -1.848790e+002 -5.533595e+000 2.285000e+001
      vertex   -1.848790e+002 -5.533595e+000 2.085000e+001
      vertex   -1.847472e+002 -5.696286e+000 2.085000e+001
    endloop
  endfacet
  facet normal -7.729231e-001 -6.259013e-001 6.938894e-018
    outer loop
      vertex   -1.848790e+002 -5.533595e+000 2.285000e+001
      vertex   -1.847472e+002 -5.696286e+000 2.085000e+001
      vertex   -1.847472e+002 -5.696286e+000 2.285000e+001
    endloop
  endfacet
  facet normal -7.361204e-002 -7.361062e-002 -0.000000e+000
    outer loop
      vertex   -1.847472e+002 -5.696286e+000 2.285000e+001
      vertex   -1.847472e+002 -5.696286e+000 2.085000e+001
      vertex   -1.845992e+002 -5.844314e+000 2.085000e+001
    endloop
  endfacet
  facet normal -7.032716e-001 -7.032580e-001 0.000000e+000
    outer loop
      vertex   -1.847472e+002 -5.696286e+000 2.285000e+001
      vertex   -1.845992e+002 -5.844314e+000 2.085000e+001
      vertex   -1.845992e+002 -5.844314e+000 2.285000e+001
    endloop
  endfacet
  facet normal -6.551428e-002 -8.090262e-002 -0.000000e+000
    outer loop
      vertex   -1.845992e+002 -5.844314e+000 2.285000e+001
      vertex   -1.845992e+002 -5.844314e+000 2.085000e+001
      vertex   -1.844365e+002 -5.976058e+000 2.085000e+001
    endloop
  endfacet
  facet normal -6.259046e-001 -7.729204e-001 0.000000e+000
    outer loop
      vertex   -1.845992e+002 -5.844314e+000 2.285000e+001
      vertex   -1.844365e+002 -5.976058e+000 2.085000e+001
      vertex   -1.844365e+002 -5.976058e+000 2.285000e+001
    endloop
  endfacet
  facet normal -5.669875e-002 -8.730685e-002 -0.000000e+000
    outer loop
      vertex   -1.844365e+002 -5.976058e+000 2.285000e+001
      vertex   -1.844365e+002 -5.976058e+000 2.085000e+001
      vertex   -1.842610e+002 -6.090075e+000 2.085000e+001
    endloop
  endfacet
  facet normal -5.416867e-001 -8.341093e-001 6.938894e-018
    outer loop
      vertex   -1.844365e+002 -5.976058e+000 2.285000e+001
      vertex   -1.842610e+002 -6.090075e+000 2.085000e+001
      vertex   -1.842610e+002 -6.090075e+000 2.285000e+001
    endloop
  endfacet
  facet normal -4.726170e-002 -9.276252e-002 -0.000000e+000
    outer loop
      vertex   -1.842610e+002 -6.090075e+000 2.285000e+001
      vertex   -1.842610e+002 -6.090075e+000 2.085000e+001
      vertex   -1.840744e+002 -6.185115e+000 2.085000e+001
    endloop
  endfacet
  facet normal -4.514995e-001 -8.861770e-001 6.938894e-018
    outer loop
      vertex   -1.842610e+002 -6.090075e+000 2.285000e+001
      vertex   -1.840744e+002 -6.185115e+000 2.085000e+001
      vertex   -1.840744e+002 -6.185115e+000 2.285000e+001
    endloop
  endfacet
  facet normal -3.730730e-002 -9.718636e-002 -0.000000e+000
    outer loop
      vertex   -1.840744e+002 -6.185115e+000 2.285000e+001
      vertex   -1.840744e+002 -6.185115e+000 2.085000e+001
      vertex   -1.838790e+002 -6.260138e+000 2.085000e+001
    endloop
  endfacet
  facet normal -3.564288e-001 -9.285050e-001 0.000000e+000
    outer loop
      vertex   -1.840744e+002 -6.185115e+000 2.285000e+001
      vertex   -1.838790e+002 -6.260138e+000 2.085000e+001
      vertex   -1.838790e+002 -6.260138e+000 2.285000e+001
    endloop
  endfacet
  facet normal -2.694383e-002 -1.005554e-001 -0.000000e+000
    outer loop
      vertex   -1.838790e+002 -6.260138e+000 2.285000e+001
      vertex   -1.838790e+002 -6.260138e+000 2.085000e+001
      vertex   -1.836768e+002 -6.314320e+000 2.085000e+001
    endloop
  endfacet
  facet normal -2.574136e-001 -9.606773e-001 0.000000e+000
    outer loop
      vertex   -1.838790e+002 -6.260138e+000 2.285000e+001
      vertex   -1.836768e+002 -6.314320e+000 2.085000e+001
      vertex   -1.836768e+002 -6.314320e+000 2.285000e+001
    endloop
  endfacet
  facet normal -1.628537e-002 -1.028242e-001 -0.000000e+000
    outer loop
      vertex   -1.836768e+002 -6.314320e+000 2.285000e+001
      vertex   -1.836768e+002 -6.314320e+000 2.085000e+001
      vertex   -1.834700e+002 -6.347068e+000 2.085000e+001
    endloop
  endfacet
  facet normal -1.555810e-001 -9.823220e-001 0.000000e+000
    outer loop
      vertex   -1.836768e+002 -6.314320e+000 2.285000e+001
      vertex   -1.834700e+002 -6.347068e+000 2.085000e+001
      vertex   -1.834700e+002 -6.347068e+000 2.285000e+001
    endloop
  endfacet
  facet normal -5.448381e-003 -1.039548e-001 -0.000000e+000
    outer loop
      vertex   -1.834700e+002 -6.347068e+000 2.285000e+001
      vertex   -1.834700e+002 -6.347068e+000 2.085000e+001
      vertex   -1.832610e+002 -6.358025e+000 2.085000e+001
    endloop
  endfacet
  facet normal -5.205485e-002 -9.932039e-001 -8.673617e-019
    outer loop
      vertex   -1.834700e+002 -6.347068e+000 2.285000e+001
      vertex   -1.832610e+002 -6.358025e+000 2.085000e+001
      vertex   -1.832610e+002 -6.358025e+000 2.285000e+001
    endloop
  endfacet
  facet normal -5.234148e-002 9.986293e-001 0.000000e+000
    outer loop
      vertex   -1.832610e+002 1.174198e+001 2.085000e+001
      vertex   -1.834700e+002 1.173102e+001 2.085000e+001
      vertex   -1.832610e+002 1.174198e+001 2.285000e+001
    endloop
  endfacet
  facet normal -5.205711e-002 9.932038e-001 -8.673617e-019
    outer loop
      vertex   -1.832610e+002 1.174198e+001 2.285000e+001
      vertex   -1.834700e+002 1.173102e+001 2.085000e+001
      vertex   -1.834700e+002 1.173102e+001 2.285000e+001
    endloop
  endfacet
  facet normal -1.628514e-002 1.028242e-001 0.000000e+000
    outer loop
      vertex   -1.834700e+002 1.173102e+001 2.285000e+001
      vertex   -1.834700e+002 1.173102e+001 2.085000e+001
      vertex   -1.836768e+002 1.169827e+001 2.085000e+001
    endloop
  endfacet
  facet normal -1.555788e-001 9.823224e-001 0.000000e+000
    outer loop
      vertex   -1.834700e+002 1.173102e+001 2.285000e+001
      vertex   -1.836768e+002 1.169827e+001 2.085000e+001
      vertex   -1.836768e+002 1.169827e+001 2.285000e+001
    endloop
  endfacet
  facet normal -2.694383e-002 1.005554e-001 0.000000e+000
    outer loop
      vertex   -1.836768e+002 1.169827e+001 2.285000e+001
      vertex   -1.836768e+002 1.169827e+001 2.085000e+001
      vertex   -1.838790e+002 1.164409e+001 2.085000e+001
    endloop
  endfacet
  facet normal -2.574136e-001 9.606773e-001 0.000000e+000
    outer loop
      vertex   -1.836768e+002 1.169827e+001 2.285000e+001
      vertex   -1.838790e+002 1.164409e+001 2.085000e+001
      vertex   -1.838790e+002 1.164409e+001 2.285000e+001
    endloop
  endfacet
  facet normal -3.730754e-002 9.718636e-002 0.000000e+000
    outer loop
      vertex   -1.838790e+002 1.164409e+001 2.285000e+001
      vertex   -1.838790e+002 1.164409e+001 2.085000e+001
      vertex   -1.840744e+002 1.156907e+001 2.085000e+001
    endloop
  endfacet
  facet normal -3.564307e-001 9.285042e-001 6.938894e-018
    outer loop
      vertex   -1.838790e+002 1.164409e+001 2.285000e+001
      vertex   -1.840744e+002 1.156907e+001 2.085000e+001
      vertex   -1.840744e+002 1.156907e+001 2.285000e+001
    endloop
  endfacet
  facet normal -4.726146e-002 9.276252e-002 0.000000e+000
    outer loop
      vertex   -1.840744e+002 1.156907e+001 2.285000e+001
      vertex   -1.840744e+002 1.156907e+001 2.085000e+001
      vertex   -1.842610e+002 1.147403e+001 2.085000e+001
    endloop
  endfacet
  facet normal -4.514977e-001 8.861779e-001 0.000000e+000
    outer loop
      vertex   -1.840744e+002 1.156907e+001 2.285000e+001
      vertex   -1.842610e+002 1.147403e+001 2.085000e+001
      vertex   -1.842610e+002 1.147403e+001 2.285000e+001
    endloop
  endfacet
  facet normal -5.669899e-002 8.730685e-002 0.000000e+000
    outer loop
      vertex   -1.842610e+002 1.147403e+001 2.285000e+001
      vertex   -1.842610e+002 1.147403e+001 2.085000e+001
      vertex   -1.844365e+002 1.136001e+001 2.085000e+001
    endloop
  endfacet
  facet normal -5.416883e-001 8.341082e-001 0.000000e+000
    outer loop
      vertex   -1.842610e+002 1.147403e+001 2.285000e+001
      vertex   -1.844365e+002 1.136001e+001 2.085000e+001
      vertex   -1.844365e+002 1.136001e+001 2.285000e+001
    endloop
  endfacet
  facet normal -6.551428e-002 8.090262e-002 0.000000e+000
    outer loop
      vertex   -1.844365e+002 1.136001e+001 2.285000e+001
      vertex   -1.844365e+002 1.136001e+001 2.085000e+001
      vertex   -1.845992e+002 1.122826e+001 2.085000e+001
    endloop
  endfacet
  facet normal -6.259046e-001 7.729204e-001 0.000000e+000
    outer loop
      vertex   -1.844365e+002 1.136001e+001 2.285000e+001
      vertex   -1.845992e+002 1.122826e+001 2.085000e+001
      vertex   -1.845992e+002 1.122826e+001 2.285000e+001
    endloop
  endfacet
  facet normal -7.361204e-002 7.361062e-002 0.000000e+000
    outer loop
      vertex   -1.845992e+002 1.122826e+001 2.285000e+001
      vertex   -1.845992e+002 1.122826e+001 2.085000e+001
      vertex   -1.847472e+002 1.108024e+001 2.085000e+001
    endloop
  endfacet
  facet normal -7.032716e-001 7.032580e-001 0.000000e+000
    outer loop
      vertex   -1.845992e+002 1.122826e+001 2.285000e+001
      vertex   -1.847472e+002 1.108024e+001 2.085000e+001
      vertex   -1.847472e+002 1.108024e+001 2.285000e+001
    endloop
  endfacet
  facet normal -8.090310e-002 6.551427e-002 0.000000e+000
    outer loop
      vertex   -1.847472e+002 1.108024e+001 2.285000e+001
      vertex   -1.847472e+002 1.108024e+001 2.085000e+001
      vertex   -1.848790e+002 1.091755e+001 2.085000e+001
    endloop
  endfacet
  facet normal -7.729222e-001 6.259024e-001 6.938894e-018
    outer loop
      vertex   -1.847472e+002 1.108024e+001 2.285000e+001
      vertex   -1.848790e+002 1.091755e+001 2.085000e+001
      vertex   -1.848790e+002 1.091755e+001 2.285000e+001
    endloop
  endfacet
  facet normal -8.730827e-002 5.669709e-002 0.000000e+000
    outer loop
      vertex   -1.848790e+002 1.091755e+001 2.285000e+001
      vertex   -1.848790e+002 1.091755e+001 2.085000e+001
      vertex   -1.849930e+002 1.074198e+001 2.085000e+001
    endloop
  endfacet
  facet normal -8.341205e-001 5.416693e-001 0.000000e+000
    outer loop
      vertex   -1.848790e+002 1.091755e+001 2.285000e+001
      vertex   -1.849930e+002 1.074198e+001 2.085000e+001
      vertex   -1.849930e+002 1.074198e+001 2.285000e+001
    endloop
  endfacet
  facet normal -9.275686e-002 4.726527e-002 0.000000e+000
    outer loop
      vertex   -1.849930e+002 1.074198e+001 2.285000e+001
      vertex   -1.849930e+002 1.074198e+001 2.085000e+001
      vertex   -1.850880e+002 1.055545e+001 2.085000e+001
    endloop
  endfacet
  facet normal -8.861524e-001 4.515486e-001 0.000000e+000
    outer loop
      vertex   -1.849930e+002 1.074198e+001 2.285000e+001
      vertex   -1.850880e+002 1.055545e+001 2.085000e+001
      vertex   -1.850880e+002 1.055545e+001 2.285000e+001
    endloop
  endfacet
  facet normal -9.718870e-002 3.730990e-002 0.000000e+000
    outer loop
      vertex   -1.850880e+002 1.055545e+001 2.285000e+001
      vertex   -1.850880e+002 1.055545e+001 2.085000e+001
      vertex   -1.851631e+002 1.036001e+001 2.085000e+001
    endloop
  endfacet
  facet normal -9.284992e-001 3.564428e-001 6.938894e-018
    outer loop
      vertex   -1.850880e+002 1.055545e+001 2.285000e+001
      vertex   -1.851631e+002 1.036001e+001 2.085000e+001
      vertex   -1.851631e+002 1.036001e+001 2.285000e+001
    endloop
  endfacet
  facet normal -1.005559e-001 2.693719e-002 0.000000e+000
    outer loop
      vertex   -1.851631e+002 1.036001e+001 2.285000e+001
      vertex   -1.851631e+002 1.036001e+001 2.085000e+001
      vertex   -1.852172e+002 1.015780e+001 2.085000e+001
    endloop
  endfacet
  facet normal -9.606936e-001 2.573533e-001 3.469447e-018
    outer loop
      vertex   -1.851631e+002 1.036001e+001 2.285000e+001
      vertex   -1.852172e+002 1.015780e+001 2.085000e+001
      vertex   -1.852172e+002 1.015780e+001 2.285000e+001
    endloop
  endfacet
  facet normal -1.028213e-001 1.629131e-002 0.000000e+000
    outer loop
      vertex   -1.852172e+002 1.015780e+001 2.285000e+001
      vertex   -1.852172e+002 1.015780e+001 2.085000e+001
      vertex   -1.852500e+002 9.951033e+000 2.085000e+001
    endloop
  endfacet
  facet normal -9.823128e-001 1.556405e-001 0.000000e+000
    outer loop
      vertex   -1.852172e+002 1.015780e+001 2.285000e+001
      vertex   -1.852500e+002 9.951033e+000 2.085000e+001
      vertex   -1.852500e+002 9.951033e+000 2.285000e+001
    endloop
  endfacet
  facet normal -1.039605e-001 5.448141e-003 0.000000e+000
    outer loop
      vertex   -1.852500e+002 9.951033e+000 2.285000e+001
      vertex   -1.852500e+002 9.951033e+000 2.085000e+001
      vertex   -1.852610e+002 9.741976e+000 2.085000e+001
    endloop
  endfacet
  facet normal -9.932036e-001 5.204972e-002 0.000000e+000
    outer loop
      vertex   -1.852500e+002 9.951033e+000 2.285000e+001
      vertex   -1.852610e+002 9.741976e+000 2.085000e+001
      vertex   -1.852610e+002 9.741976e+000 2.285000e+001
    endloop
  endfacet
  facet normal -0.000000e+000 0.000000e+000 9.823091e-001
    outer loop
      vertex   -1.776857e+002 8.566865e-001 2.285000e+001
      vertex   -1.543609e+002 -4.358025e+000 2.285000e+001
      vertex   -1.775609e+002 4.810040e+000 2.285000e+001
    endloop
  endfacet
  facet normal -0.000000e+000 0.000000e+000 5.528722e-001
    outer loop
      vertex   -1.775609e+002 4.810040e+000 2.285000e+001
      vertex   -1.543609e+002 -4.358025e+000 2.285000e+001
      vertex   -1.543609e+002 9.741976e+000 2.285000e+001
    endloop
  endfacet
  facet normal 0.000000e+000 0.000000e+000 1.925347e-001
    outer loop
      vertex   -1.775609e+002 4.810040e+000 2.285000e+001
      vertex   -1.543609e+002 9.741976e+000 2.285000e+001
      vertex   -1.613109e+002 1.174198e+001 2.285000e+001
    endloop
  endfacet
  facet normal -0.000000e+000 0.000000e+000 2.765470e-001
    outer loop
      vertex   -1.613109e+002 1.174198e+001 2.285000e+001
      vertex   -1.543609e+002 9.741976e+000 2.285000e+001
      vertex   -1.593109e+002 1.174198e+001 2.285000e+001
    endloop
  endfacet
  facet normal 0.000000e+000 0.000000e+000 3.611323e-002
    outer loop
      vertex   -1.593109e+002 1.174198e+001 2.285000e+001
      vertex   -1.543609e+002 9.741976e+000 2.285000e+001
      vertex   -1.543719e+002 9.951033e+000 2.285000e+001
    endloop
  endfacet
  facet normal 0.000000e+000 0.000000e+000 3.553617e-002
    outer loop
      vertex   -1.593109e+002 1.174198e+001 2.285000e+001
      vertex   -1.543719e+002 9.951033e+000 2.285000e+001
      vertex   -1.544047e+002 1.015780e+001 2.285000e+001
    endloop
  endfacet
  facet normal 0.000000e+000 0.000000e+000 9.126620e-001
    outer loop
      vertex   -1.810470e+002 2.941489e+000 2.285000e+001
      vertex   -1.852610e+002 9.197544e-002 2.285000e+001
      vertex   -1.776857e+002 8.566865e-001 2.285000e+001
    endloop
  endfacet
  facet normal 0.000000e+000 0.000000e+000 4.814282e-001
    outer loop
      vertex   -1.776857e+002 8.566865e-001 2.285000e+001
      vertex   -1.852610e+002 9.197544e-002 2.285000e+001
      vertex   -1.852610e+002 -4.358025e+000 2.285000e+001
    endloop
  endfacet
  facet normal 0.000000e+000 0.000000e+000 2.491325e-001
    outer loop
      vertex   -1.776857e+002 8.566865e-001 2.285000e+001
      vertex   -1.852610e+002 -4.358025e+000 2.285000e+001
      vertex   -1.838790e+002 -6.260138e+000 2.285000e+001
    endloop
  endfacet
  facet normal 0.000000e+000 0.000000e+000 5.233617e-002
    outer loop
      vertex   -1.838790e+002 -6.260138e+000 2.285000e+001
      vertex   -1.852610e+002 -4.358025e+000 2.285000e+001
      vertex   -1.852500e+002 -4.567081e+000 2.285000e+001
    endloop
  endfacet
  facet normal 0.000000e+000 0.000000e+000 5.233166e-002
    outer loop
      vertex   -1.838790e+002 -6.260138e+000 2.285000e+001
      vertex   -1.852500e+002 -4.567081e+000 2.285000e+001
      vertex   -1.852172e+002 -4.773848e+000 2.285000e+001
    endloop
  endfacet
  facet normal 0.000000e+000 0.000000e+000 8.283843e-001
    outer loop
      vertex   -1.852610e+002 9.197544e-002 2.285000e+001
      vertex   -1.810470e+002 2.941489e+000 2.285000e+001
      vertex   -1.852610e+002 5.291975e+000 2.285000e+001
    endloop
  endfacet
  facet normal 0.000000e+000 0.000000e+000 4.316259e-001
    outer loop
      vertex   -1.852610e+002 5.291975e+000 2.285000e+001
      vertex   -1.810470e+002 2.941489e+000 2.285000e+001
      vertex   -1.775609e+002 4.810040e+000 2.285000e+001
    endloop
  endfacet
  facet normal -0.000000e+000 0.000000e+000 9.980471e-001
    outer loop
      vertex   -1.852610e+002 5.291975e+000 2.285000e+001
      vertex   -1.775609e+002 4.810040e+000 2.285000e+001
      vertex   -1.852610e+002 9.741976e+000 2.285000e+001
    endloop
  endfacet
  facet normal -0.000000e+000 0.000000e+000 9.768209e-001
    outer loop
      vertex   -1.852610e+002 9.741976e+000 2.285000e+001
      vertex   -1.775609e+002 4.810040e+000 2.285000e+001
      vertex   -1.832610e+002 1.174198e+001 2.285000e+001
    endloop
  endfacet
  facet normal 0.000000e+000 0.000000e+000 6.691320e-001
    outer loop
      vertex   -1.852610e+002 9.741976e+000 2.285000e+001
      vertex   -1.832610e+002 1.174198e+001 2.285000e+001
      vertex   -1.852500e+002 9.951033e+000 2.285000e+001
    endloop
  endfacet
  facet normal 0.000000e+000 0.000000e+000 6.292762e-001
    outer loop
      vertex   -1.852500e+002 9.951033e+000 2.285000e+001
      vertex   -1.832610e+002 1.174198e+001 2.285000e+001
      vertex   -1.852172e+002 1.015780e+001 2.285000e+001
    endloop
  endfacet
  facet normal 0.000000e+000 0.000000e+000 5.878329e-001
    outer loop
      vertex   -1.852172e+002 1.015780e+001 2.285000e+001
      vertex   -1.832610e+002 1.174198e+001 2.285000e+001
      vertex   -1.851631e+002 1.036001e+001 2.285000e+001
    endloop
  endfacet
  facet normal 0.000000e+000 0.000000e+000 5.446193e-001
    outer loop
      vertex   -1.851631e+002 1.036001e+001 2.285000e+001
      vertex   -1.832610e+002 1.174198e+001 2.285000e+001
      vertex   -1.850880e+002 1.055545e+001 2.285000e+001
    endloop
  endfacet
  facet normal 0.000000e+000 0.000000e+000 4.999747e-001
    outer loop
      vertex   -1.850880e+002 1.055545e+001 2.285000e+001
      vertex   -1.832610e+002 1.174198e+001 2.285000e+001
      vertex   -1.849930e+002 1.074198e+001 2.285000e+001
    endloop
  endfacet
  facet normal 0.000000e+000 0.000000e+000 4.539994e-001
    outer loop
      vertex   -1.849930e+002 1.074198e+001 2.285000e+001
      vertex   -1.832610e+002 1.174198e+001 2.285000e+001
      vertex   -1.848790e+002 1.091755e+001 2.285000e+001
    endloop
  endfacet
  facet normal 0.000000e+000 0.000000e+000 4.067333e-001
    outer loop
      vertex   -1.848790e+002 1.091755e+001 2.285000e+001
      vertex   -1.832610e+002 1.174198e+001 2.285000e+001
      vertex   -1.847472e+002 1.108024e+001 2.285000e+001
    endloop
  endfacet
  facet normal 0.000000e+000 0.000000e+000 3.583750e-001
    outer loop
      vertex   -1.847472e+002 1.108024e+001 2.285000e+001
      vertex   -1.832610e+002 1.174198e+001 2.285000e+001
      vertex   -1.845992e+002 1.122826e+001 2.285000e+001
    endloop
  endfacet
  facet normal 0.000000e+000 0.000000e+000 3.090200e-001
    outer loop
      vertex   -1.845992e+002 1.122826e+001 2.285000e+001
      vertex   -1.832610e+002 1.174198e+001 2.285000e+001
      vertex   -1.844365e+002 1.136001e+001 2.285000e+001
    endloop
  endfacet
  facet normal 0.000000e+000 0.000000e+000 2.588277e-001
    outer loop
      vertex   -1.844365e+002 1.136001e+001 2.285000e+001
      vertex   -1.832610e+002 1.174198e+001 2.285000e+001
      vertex   -1.842610e+002 1.147403e+001 2.285000e+001
    endloop
  endfacet
  facet normal 0.000000e+000 0.000000e+000 2.078833e-001
    outer loop
      vertex   -1.842610e+002 1.147403e+001 2.285000e+001
      vertex   -1.832610e+002 1.174198e+001 2.285000e+001
      vertex   -1.840744e+002 1.156907e+001 2.285000e+001
    endloop
  endfacet
  facet normal 0.000000e+000 0.000000e+000 1.564413e-001
    outer loop
      vertex   -1.840744e+002 1.156907e+001 2.285000e+001
      vertex   -1.832610e+002 1.174198e+001 2.285000e+001
      vertex   -1.838790e+002 1.164409e+001 2.285000e+001
    endloop
  endfacet
  facet normal 0.000000e+000 0.000000e+000 1.045274e-001
    outer loop
      vertex   -1.838790e+002 1.164409e+001 2.285000e+001
      vertex   -1.832610e+002 1.174198e+001 2.285000e+001
      vertex   -1.836768e+002 1.169827e+001 2.285000e+001
    endloop
  endfacet
  facet normal 0.000000e+000 0.000000e+000 5.232823e-002
    outer loop
      vertex   -1.836768e+002 1.169827e+001 2.285000e+001
      vertex   -1.832610e+002 1.174198e+001 2.285000e+001
      vertex   -1.834700e+002 1.173102e+001 2.285000e+001
    endloop
  endfacet
  facet normal 0.000000e+000 -0.000000e+000 5.233920e-002
    outer loop
      vertex   -1.832610e+002 -6.358025e+000 2.285000e+001
      vertex   -1.613109e+002 -6.358025e+000 2.285000e+001
      vertex   -1.834700e+002 -6.347068e+000 2.285000e+001
    endloop
  endfacet
  facet normal 0.000000e+000 0.000000e+000 4.093191e-005
    outer loop
      vertex   -1.834700e+002 -6.347068e+000 2.285000e+001
      vertex   -1.613109e+002 -6.358025e+000 2.285000e+001
      vertex   -1.593109e+002 -6.358025e+000 2.285000e+001
    endloop
  endfacet
  facet normal 0.000000e+000 0.000000e+000 4.935038e-005
    outer loop
      vertex   -1.834700e+002 -6.347068e+000 2.285000e+001
      vertex   -1.593109e+002 -6.358025e+000 2.285000e+001
      vertex   -1.563609e+002 -6.358025e+000 2.285000e+001
    endloop
  endfacet
  facet normal 0.000000e+000 -0.000000e+000 5.274280e-002
    outer loop
      vertex   -1.563609e+002 -6.358025e+000 2.285000e+001
      vertex   -1.561519e+002 -6.347068e+000 2.285000e+001
      vertex   -1.834700e+002 -6.347068e+000 2.285000e+001
    endloop
  endfacet
  facet normal 0.000000e+000 -0.000000e+000 1.564310e-001
    outer loop
      vertex   -1.834700e+002 -6.347068e+000 2.285000e+001
      vertex   -1.561519e+002 -6.347068e+000 2.285000e+001
      vertex   -1.836768e+002 -6.314320e+000 2.285000e+001
    endloop
  endfacet
  facet normal -0.000000e+000 0.000000e+000 1.189785e-003
    outer loop
      vertex   -1.836768e+002 -6.314320e+000 2.285000e+001
      vertex   -1.561519e+002 -6.347068e+000 2.285000e+001
      vertex   -1.559451e+002 -6.314320e+000 2.285000e+001
    endloop
  endfacet
  facet normal 0.000000e+000 -0.000000e+000 2.588199e-001
    outer loop
      vertex   -1.836768e+002 -6.314320e+000 2.285000e+001
      vertex   -1.559451e+002 -6.314320e+000 2.285000e+001
      vertex   -1.838790e+002 -6.260138e+000 2.285000e+001
    endloop
  endfacet
  facet normal -0.000000e+000 0.000000e+000 7.556301e-001
    outer loop
      vertex   -1.838790e+002 -6.260138e+000 2.285000e+001
      vertex   -1.559451e+002 -6.314320e+000 2.285000e+001
      vertex   -1.776857e+002 8.566865e-001 2.285000e+001
    endloop
  endfacet
  facet normal 0.000000e+000 -0.000000e+000 1.045361e-001
    outer loop
      vertex   -1.557429e+002 -6.260138e+000 2.285000e+001
      vertex   -1.555475e+002 -6.185115e+000 2.285000e+001
      vertex   -1.559451e+002 -6.314320e+000 2.285000e+001
    endloop
  endfacet
  facet normal 0.000000e+000 0.000000e+000 5.232775e-002
    outer loop
      vertex   -1.559451e+002 -6.314320e+000 2.285000e+001
      vertex   -1.555475e+002 -6.185115e+000 2.285000e+001
      vertex   -1.553609e+002 -6.090075e+000 2.285000e+001
    endloop
  endfacet
  facet normal 0.000000e+000 0.000000e+000 5.233819e-002
    outer loop
      vertex   -1.559451e+002 -6.314320e+000 2.285000e+001
      vertex   -1.553609e+002 -6.090075e+000 2.285000e+001
      vertex   -1.551854e+002 -5.976058e+000 2.285000e+001
    endloop
  endfacet
  facet normal 0.000000e+000 -0.000000e+000 2.588252e-001
    outer loop
      vertex   -1.551854e+002 -5.976058e+000 2.285000e+001
      vertex   -1.550227e+002 -5.844314e+000 2.285000e+001
      vertex   -1.559451e+002 -6.314320e+000 2.285000e+001
    endloop
  endfacet
  facet normal 0.000000e+000 0.000000e+000 5.233716e-002
    outer loop
      vertex   -1.559451e+002 -6.314320e+000 2.285000e+001
      vertex   -1.550227e+002 -5.844314e+000 2.285000e+001
      vertex   -1.548747e+002 -5.696286e+000 2.285000e+001
    endloop
  endfacet
  facet normal 0.000000e+000 0.000000e+000 5.233588e-002
    outer loop
      vertex   -1.559451e+002 -6.314320e+000 2.285000e+001
      vertex   -1.548747e+002 -5.696286e+000 2.285000e+001
      vertex   -1.547429e+002 -5.533595e+000 2.285000e+001
    endloop
  endfacet
  facet normal 0.000000e+000 -0.000000e+000 4.067478e-001
    outer loop
      vertex   -1.547429e+002 -5.533595e+000 2.285000e+001
      vertex   -1.546289e+002 -5.358025e+000 2.285000e+001
      vertex   -1.559451e+002 -6.314320e+000 2.285000e+001
    endloop
  endfacet
  facet normal 0.000000e+000 0.000000e+000 5.233355e-002
    outer loop
      vertex   -1.559451e+002 -6.314320e+000 2.285000e+001
      vertex   -1.546289e+002 -5.358025e+000 2.285000e+001
      vertex   -1.545339e+002 -5.171498e+000 2.285000e+001
    endloop
  endfacet
  facet normal 0.000000e+000 0.000000e+000 5.233422e-002
    outer loop
      vertex   -1.559451e+002 -6.314320e+000 2.285000e+001
      vertex   -1.545339e+002 -5.171498e+000 2.285000e+001
      vertex   -1.544588e+002 -4.976058e+000 2.285000e+001
    endloop
  endfacet
  facet normal 0.000000e+000 -0.000000e+000 5.446932e-001
    outer loop
      vertex   -1.544588e+002 -4.976058e+000 2.285000e+001
      vertex   -1.544047e+002 -4.773848e+000 2.285000e+001
      vertex   -1.559451e+002 -6.314320e+000 2.285000e+001
    endloop
  endfacet
  facet normal 0.000000e+000 0.000000e+000 5.233217e-002
    outer loop
      vertex   -1.559451e+002 -6.314320e+000 2.285000e+001
      vertex   -1.544047e+002 -4.773848e+000 2.285000e+001
      vertex   -1.543719e+002 -4.567081e+000 2.285000e+001
    endloop
  endfacet
  facet normal 0.000000e+000 0.000000e+000 5.233611e-002
    outer loop
      vertex   -1.559451e+002 -6.314320e+000 2.285000e+001
      vertex   -1.543719e+002 -4.567081e+000 2.285000e+001
      vertex   -1.543609e+002 -4.358025e+000 2.285000e+001
    endloop
  endfacet
  facet normal -0.000000e+000 0.000000e+000 3.072673e-001
    outer loop
      vertex   -1.593109e+002 1.174198e+001 2.285000e+001
      vertex   -1.544047e+002 1.015780e+001 2.285000e+001
      vertex   -1.563609e+002 1.174198e+001 2.285000e+001
    endloop
  endfacet
  facet normal 0.000000e+000 0.000000e+000 5.233924e-002
    outer loop
      vertex   -1.563609e+002 1.174198e+001 2.285000e+001
      vertex   -1.544047e+002 1.015780e+001 2.285000e+001
      vertex   -1.544588e+002 1.036001e+001 2.285000e+001
    endloop
  endfacet
  facet normal 0.000000e+000 0.000000e+000 5.233461e-002
    outer loop
      vertex   -1.563609e+002 1.174198e+001 2.285000e+001
      vertex   -1.544588e+002 1.036001e+001 2.285000e+001
      vertex   -1.545339e+002 1.055545e+001 2.285000e+001
    endloop
  endfacet
  facet normal 0.000000e+000 0.000000e+000 4.999747e-001
    outer loop
      vertex   -1.545339e+002 1.055545e+001 2.285000e+001
      vertex   -1.546289e+002 1.074198e+001 2.285000e+001
      vertex   -1.563609e+002 1.174198e+001 2.285000e+001
    endloop
  endfacet
  facet normal 0.000000e+000 0.000000e+000 5.233673e-002
    outer loop
      vertex   -1.563609e+002 1.174198e+001 2.285000e+001
      vertex   -1.546289e+002 1.074198e+001 2.285000e+001
      vertex   -1.547429e+002 1.091755e+001 2.285000e+001
    endloop
  endfacet
  facet normal 0.000000e+000 0.000000e+000 5.233564e-002
    outer loop
      vertex   -1.563609e+002 1.174198e+001 2.285000e+001
      vertex   -1.547429e+002 1.091755e+001 2.285000e+001
      vertex   -1.548747e+002 1.108024e+001 2.285000e+001
    endloop
  endfacet
  facet normal 0.000000e+000 0.000000e+000 3.583750e-001
    outer loop
      vertex   -1.548747e+002 1.108024e+001 2.285000e+001
      vertex   -1.550227e+002 1.122826e+001 2.285000e+001
      vertex   -1.563609e+002 1.174198e+001 2.285000e+001
    endloop
  endfacet
  facet normal 0.000000e+000 0.000000e+000 5.233629e-002
    outer loop
      vertex   -1.563609e+002 1.174198e+001 2.285000e+001
      vertex   -1.550227e+002 1.122826e+001 2.285000e+001
      vertex   -1.551854e+002 1.136001e+001 2.285000e+001
    endloop
  endfacet
  facet normal 0.000000e+000 0.000000e+000 5.233720e-002
    outer loop
      vertex   -1.563609e+002 1.174198e+001 2.285000e+001
      vertex   -1.551854e+002 1.136001e+001 2.285000e+001
      vertex   -1.553609e+002 1.147403e+001 2.285000e+001
    endloop
  endfacet
  facet normal 0.000000e+000 0.000000e+000 2.078833e-001
    outer loop
      vertex   -1.553609e+002 1.147403e+001 2.285000e+001
      vertex   -1.555475e+002 1.156907e+001 2.285000e+001
      vertex   -1.563609e+002 1.174198e+001 2.285000e+001
    endloop
  endfacet
  facet normal 0.000000e+000 0.000000e+000 5.233779e-002
    outer loop
      vertex   -1.563609e+002 1.174198e+001 2.285000e+001
      vertex   -1.555475e+002 1.156907e+001 2.285000e+001
      vertex   -1.557429e+002 1.164409e+001 2.285000e+001
    endloop
  endfacet
  facet normal 0.000000e+000 0.000000e+000 5.233591e-002
    outer loop
      vertex   -1.563609e+002 1.174198e+001 2.285000e+001
      vertex   -1.557429e+002 1.164409e+001 2.285000e+001
      vertex   -1.559451e+002 1.169827e+001 2.285000e+001
    endloop
  endfacet
  facet normal 0.000000e+000 0.000000e+000 5.232823e-002
    outer loop
      vertex   -1.559451e+002 1.169827e+001 2.285000e+001
      vertex   -1.561519e+002 1.173102e+001 2.285000e+001
      vertex   -1.563609e+002 1.174198e+001 2.285000e+001
    endloop
  endfacet
  facet normal 0.000000e+000 0.000000e+000 3.923733e-001
    outer loop
      vertex   -1.613109e+002 1.174198e+001 2.285000e+001
      vertex   -1.832610e+002 1.174198e+001 2.285000e+001
      vertex   -1.775609e+002 4.810040e+000 2.285000e+001
    endloop
  endfacet
  facet normal 0.000000e+000 0.000000e+000 4.540443e-001
    outer loop
      vertex   -1.852172e+002 -4.773848e+000 2.285000e+001
      vertex   -1.851631e+002 -4.976058e+000 2.285000e+001
      vertex   -1.838790e+002 -6.260138e+000 2.285000e+001
    endloop
  endfacet
  facet normal 0.000000e+000 0.000000e+000 5.233397e-002
    outer loop
      vertex   -1.838790e+002 -6.260138e+000 2.285000e+001
      vertex   -1.851631e+002 -4.976058e+000 2.285000e+001
      vertex   -1.850880e+002 -5.171498e+000 2.285000e+001
    endloop
  endfacet
  facet normal 0.000000e+000 0.000000e+000 5.233307e-002
    outer loop
      vertex   -1.838790e+002 -6.260138e+000 2.285000e+001
      vertex   -1.850880e+002 -5.171498e+000 2.285000e+001
      vertex   -1.849930e+002 -5.358025e+000 2.285000e+001
    endloop
  endfacet
  facet normal 0.000000e+000 0.000000e+000 3.090277e-001
    outer loop
      vertex   -1.849930e+002 -5.358025e+000 2.285000e+001
      vertex   -1.848790e+002 -5.533595e+000 2.285000e+001
      vertex   -1.838790e+002 -6.260138e+000 2.285000e+001
    endloop
  endfacet
  facet normal 0.000000e+000 0.000000e+000 5.233588e-002
    outer loop
      vertex   -1.838790e+002 -6.260138e+000 2.285000e+001
      vertex   -1.848790e+002 -5.533595e+000 2.285000e+001
      vertex   -1.847472e+002 -5.696286e+000 2.285000e+001
    endloop
  endfacet
  facet normal 0.000000e+000 0.000000e+000 5.233764e-002
    outer loop
      vertex   -1.838790e+002 -6.260138e+000 2.285000e+001
      vertex   -1.847472e+002 -5.696286e+000 2.285000e+001
      vertex   -1.845992e+002 -5.844314e+000 2.285000e+001
    endloop
  endfacet
  facet normal 0.000000e+000 0.000000e+000 1.564407e-001
    outer loop
      vertex   -1.845992e+002 -5.844314e+000 2.285000e+001
      vertex   -1.844365e+002 -5.976058e+000 2.285000e+001
      vertex   -1.838790e+002 -6.260138e+000 2.285000e+001
    endloop
  endfacet
  facet normal 0.000000e+000 0.000000e+000 5.234022e-002
    outer loop
      vertex   -1.838790e+002 -6.260138e+000 2.285000e+001
      vertex   -1.844365e+002 -5.976058e+000 2.285000e+001
      vertex   -1.842610e+002 -6.090075e+000 2.285000e+001
    endloop
  endfacet
  facet normal 0.000000e+000 0.000000e+000 5.232002e-002
    outer loop
      vertex   -1.838790e+002 -6.260138e+000 2.285000e+001
      vertex   -1.842610e+002 -6.090075e+000 2.285000e+001
      vertex   -1.840744e+002 -6.185115e+000 2.285000e+001
    endloop
  endfacet
  facet normal 0.000000e+000 0.000000e+000 8.957291e-001
    outer loop
      vertex   -1.543609e+002 -4.358025e+000 2.285000e+001
      vertex   -1.776857e+002 8.566865e-001 2.285000e+001
      vertex   -1.559451e+002 -6.314320e+000 2.285000e+001
    endloop
  endfacet
endsolid
