ISO-10303-21;
HEADER;
FILE_DESCRIPTION (( 'STEP AP214' ),
    '1' );
FILE_NAME ('Status Light Diffuser.STEP',
    '2025-04-22T17:41:36',
    ( '' ),
    ( '' ),
    'SwSTEP 2.0',
    'SolidWorks 2023',
    '' );
FILE_SCHEMA (( 'AUTOMOTIVE_DESIGN' ));
ENDSEC;

DATA;
#1 = ORIENTED_EDGE ( 'NONE', *, *, #189, .T. ) ;
#2 = CARTESIAN_POINT ( 'NONE',  ( 14.73482246715532540, 21.35820133158775391, 16.16574295136114614 ) ) ;
#3 = ORIENTED_EDGE ( 'NONE', *, *, #38, .T. ) ;
#4 = ADVANCED_FACE ( 'NONE', ( #87 ), #430, .T. ) ;
#5 = CARTESIAN_POINT ( 'NONE',  ( 14.73482246715532540, 31.28178795890525876, 4.150000000000003020 ) ) ;
#6 = CARTESIAN_POINT ( 'NONE',  ( 8.892326068187754728, 30.31999464524650989, 5.650000000000002132 ) ) ;
#7 = ORIENTED_EDGE ( 'NONE', *, *, #331, .T. ) ;
#8 = ORIENTED_EDGE ( 'NONE', *, *, #419, .F. ) ;
#9 = VERTEX_POINT ( 'NONE', #355 ) ;
#10 = CARTESIAN_POINT ( 'NONE',  ( 14.73482246715532540, 24.81999464524650634, 4.150000000000001243 ) ) ;
#11 = VECTOR ( 'NONE', #19, 1000.000000000000000 ) ;
#12 = ORIENTED_EDGE ( 'NONE', *, *, #419, .T. ) ;
#13 = EDGE_CURVE ( 'NONE', #180, #88, #285, .T. ) ;
#14 = ORIENTED_EDGE ( 'NONE', *, *, #195, .F. ) ;
#15 = CARTESIAN_POINT ( 'NONE',  ( 5.976850120765105245, 27.81999464524650989, 4.150000000000001243 ) ) ;
#16 = DIRECTION ( 'NONE',  ( 1.748081153644072140E-16, -1.000000000000000000, -6.195440985631452852E-17 ) ) ;
#17 = DIRECTION ( 'NONE',  ( 1.000000000000000000, 1.748081153644072140E-16, -0.000000000000000000 ) ) ;
#18 = VERTEX_POINT ( 'NONE', #322 ) ;
#19 = DIRECTION ( 'NONE',  ( 0.000000000000000000, 1.000000000000000000, 6.195440985631452852E-17 ) ) ;
#20 = ORIENTED_EDGE ( 'NONE', *, *, #429, .T. ) ;
#21 = ADVANCED_FACE ( 'NONE', ( #249 ), #78, .T. ) ;
#22 = LINE ( 'NONE', #374, #41 ) ;
#23 = AXIS2_PLACEMENT_3D ( 'NONE', #337, #409, #126 ) ;
#24 = FACE_OUTER_BOUND ( 'NONE', #291, .T. ) ;
#25 = FACE_OUTER_BOUND ( 'NONE', #253, .T. ) ;
#26 = CARTESIAN_POINT ( 'NONE',  ( 8.892326068187756505, 22.71999464524650847, 5.650000000000002132 ) ) ;
#27 = DIRECTION ( 'NONE',  ( 1.000000000000000000, 0.000000000000000000, 0.000000000000000000 ) ) ;
#28 = CARTESIAN_POINT ( 'NONE',  ( 8.892326068187756505, 23.81999464524650634, 4.150000000000002132 ) ) ;
#29 = CARTESIAN_POINT ( 'NONE',  ( 5.976850120765105245, 30.31999464524650989, 5.650000000000002132 ) ) ;
#30 = EDGE_CURVE ( 'NONE', #313, #9, #106, .T. ) ;
#31 = DIRECTION ( 'NONE',  ( 0.000000000000000000, -1.000000000000000000, 0.000000000000000000 ) ) ;
#32 = COLOUR_RGB ( '',0.7921568627450980005, 0.8196078431372548767, 0.9333333333333333481 ) ;
#33 = EDGE_CURVE ( 'NONE', #437, #170, #143, .T. ) ;
#34 = ORIENTED_EDGE ( 'NONE', *, *, #33, .F. ) ;
#35 = VERTEX_POINT ( 'NONE', #242 ) ;
#36 = ORIENTED_EDGE ( 'NONE', *, *, #178, .F. ) ;
#37 = EDGE_LOOP ( 'NONE', ( #115, #386, #114, #79 ) ) ;
#38 = EDGE_CURVE ( 'NONE', #150, #282, #292, .T. ) ;
#39 = CARTESIAN_POINT ( 'NONE',  ( 8.892326068187754728, 31.28178795890525876, 16.16574295136114614 ) ) ;
#40 = CARTESIAN_POINT ( 'NONE',  ( 8.892326068187756505, 21.35820133158775391, 4.150000000000001243 ) ) ;
#41 = VECTOR ( 'NONE', #31, 1000.000000000000000 ) ;
#42 = DIRECTION ( 'NONE',  ( 1.000000000000000000, 0.000000000000000000, 0.000000000000000000 ) ) ;
#43 = ORIENTED_EDGE ( 'NONE', *, *, #429, .F. ) ;
#44 = CARTESIAN_POINT ( 'NONE',  ( 8.892326068187754728, 29.91999464524650776, 5.650000000000002132 ) ) ;
#45 = EDGE_CURVE ( 'NONE', #349, #46, #81, .T. ) ;
#46 = VERTEX_POINT ( 'NONE', #418 ) ;
#47 = ORIENTED_EDGE ( 'NONE', *, *, #450, .F. ) ;
#48 = FILL_AREA_STYLE_COLOUR ( '', #32 ) ;
#49 = PLANE ( 'NONE',  #205 ) ;
#50 = VECTOR ( 'NONE', #232, 1000.000000000000000 ) ;
#51 = DIRECTION ( 'NONE',  ( 1.000000000000000000, 0.000000000000000000, 0.000000000000000000 ) ) ;
#52 = ORIENTED_EDGE ( 'NONE', *, *, #195, .T. ) ;
#53 = ORIENTED_EDGE ( 'NONE', *, *, #167, .F. ) ;
#54 = DIRECTION ( 'NONE',  ( -0.000000000000000000, -1.000000000000000000, -0.000000000000000000 ) ) ;
#55 = EDGE_CURVE ( 'NONE', #18, #244, #427, .T. ) ;
#56 = DIRECTION ( 'NONE',  ( 1.748081153644072140E-16, -1.000000000000000000, 0.000000000000000000 ) ) ;
#57 = VECTOR ( 'NONE', #356, 999.9999999999998863 ) ;
#58 = DIRECTION ( 'NONE',  ( 1.236080037806124775E-16, -0.7071067811865465735, 0.7071067811865485719 ) ) ;
#59 = EDGE_CURVE ( 'NONE', #68, #88, #327, .T. ) ;
#60 = DIRECTION ( 'NONE',  ( 0.000000000000000000, 1.000000000000000000, 0.000000000000000000 ) ) ;
#61 = FACE_OUTER_BOUND ( 'NONE', #284, .T. ) ;
#62 = CARTESIAN_POINT ( 'NONE',  ( 14.73482246715532540, 21.35820133158775391, 16.16574295136114614 ) ) ;
#63 = FACE_OUTER_BOUND ( 'NONE', #320, .T. ) ;
#64 = VECTOR ( 'NONE', #112, 1000.000000000000000 ) ;
#65 = CARTESIAN_POINT ( 'NONE',  ( 14.73482246715532540, 31.28178795890525876, 16.16574295136114614 ) ) ;
#66 = AXIS2_PLACEMENT_3D ( 'NONE', #445, #97, #234 ) ;
#67 = FACE_OUTER_BOUND ( 'NONE', #238, .T. ) ;
#68 = VERTEX_POINT ( 'NONE', #145 ) ;
#69 =( NAMED_UNIT ( * ) SI_UNIT ( $, .STERADIAN. ) SOLID_ANGLE_UNIT ( ) );
#70 = PRODUCT_RELATED_PRODUCT_CATEGORY ( 'part', '', ( #159 ) ) ;
#71 = VECTOR ( 'NONE', #153, 1000.000000000000000 ) ;
#72 = DIRECTION ( 'NONE',  ( 1.000000000000000000, 0.000000000000000000, 0.000000000000000000 ) ) ;
#73 = ORIENTED_EDGE ( 'NONE', *, *, #45, .F. ) ;
#74 = EDGE_CURVE ( 'NONE', #46, #244, #283, .T. ) ;
#75 = EDGE_LOOP ( 'NONE', ( #276, #190, #8, #391 ) ) ;
#76 = ORIENTED_EDGE ( 'NONE', *, *, #450, .T. ) ;
#77 = LINE ( 'NONE', #39, #422 ) ;
#78 = PLANE ( 'NONE',  #105 ) ;
#79 = ORIENTED_EDGE ( 'NONE', *, *, #302, .F. ) ;
#80 = VECTOR ( 'NONE', #368, 1000.000000000000000 ) ;
#81 = LINE ( 'NONE', #5, #225 ) ;
#82 = PLANE ( 'NONE',  #215 ) ;
#83 = ORIENTED_EDGE ( 'NONE', *, *, #94, .F. ) ;
#84 = VERTEX_POINT ( 'NONE', #269 ) ;
#85 = CARTESIAN_POINT ( 'NONE',  ( 8.892326068187754728, 31.28178795890525876, 16.16574295136114614 ) ) ;
#86 = ORIENTED_EDGE ( 'NONE', *, *, #59, .T. ) ;
#87 = FACE_OUTER_BOUND ( 'NONE', #293, .T. ) ;
#88 = VERTEX_POINT ( 'NONE', #158 ) ;
#89 = CARTESIAN_POINT ( 'NONE',  ( 14.73482246715532540, 21.35820133158775391, 0.000000000000000000 ) ) ;
#90 = CLOSED_SHELL ( 'NONE', ( #148, #21, #348, #133, #385, #116, #267, #4, #309, #102, #228, #273, #357, #138 ) ) ;
#91 = LINE ( 'NONE', #65, #118 ) ;
#92 = LINE ( 'NONE', #227, #173 ) ;
#93 = STYLED_ITEM ( 'NONE', ( #318 ), #201 ) ;
#94 = EDGE_CURVE ( 'NONE', #208, #313, #440, .T. ) ;
#95 = CARTESIAN_POINT ( 'NONE',  ( 8.892326068187754728, 29.91999464524650776, 5.650000000000002132 ) ) ;
#96 = DIRECTION ( 'NONE',  ( -1.748081153644072140E-16, 1.000000000000000000, 0.000000000000000000 ) ) ;
#97 = DIRECTION ( 'NONE',  ( 0.000000000000000000, 0.000000000000000000, 1.000000000000000000 ) ) ;
#98 = LINE ( 'NONE', #341, #50 ) ;
#99 = UNCERTAINTY_MEASURE_WITH_UNIT (LENGTH_MEASURE( 1.000000000000000082E-05 ), #277, 'distance_accuracy_value', 'NONE');
#100 = CARTESIAN_POINT ( 'NONE',  ( 14.73482246715532540, 21.35820133158775391, 0.000000000000000000 ) ) ;
#101 = APPLICATION_CONTEXT ( 'automotive_design' ) ;
#102 = ADVANCED_FACE ( 'NONE', ( #192 ), #410, .T. ) ;
#103 = ORIENTED_EDGE ( 'NONE', *, *, #302, .T. ) ;
#104 = EDGE_CURVE ( 'NONE', #324, #35, #92, .T. ) ;
#105 = AXIS2_PLACEMENT_3D ( 'NONE', #187, #175, #42 ) ;
#106 = LINE ( 'NONE', #136, #406 ) ;
#107 = CARTESIAN_POINT ( 'NONE',  ( 5.976850120765105245, 27.81999464524650989, 4.150000000000001243 ) ) ;
#108 = EDGE_LOOP ( 'NONE', ( #73, #76, #7, #14 ) ) ;
#109 = EDGE_CURVE ( 'NONE', #208, #84, #98, .T. ) ;
#110 = DIRECTION ( 'NONE',  ( -0.000000000000000000, 0.000000000000000000, 1.000000000000000000 ) ) ;
#111 = ORIENTED_EDGE ( 'NONE', *, *, #94, .T. ) ;
#112 = DIRECTION ( 'NONE',  ( 1.236080037806124775E-16, -0.7071067811865465735, -0.7071067811865485719 ) ) ;
#113 = ORIENTED_EDGE ( 'NONE', *, *, #316, .T. ) ;
#114 = ORIENTED_EDGE ( 'NONE', *, *, #441, .F. ) ;
#115 = ORIENTED_EDGE ( 'NONE', *, *, #372, .F. ) ;
#116 = ADVANCED_FACE ( 'NONE', ( #125 ), #231, .F. ) ;
#117 = PLANE ( 'NONE',  #214 ) ;
#118 = VECTOR ( 'NONE', #299, 1000.000000000000000 ) ;
#119 = DIRECTION ( 'NONE',  ( -1.422472145105863829E-16, 0.8137334712067343379, 0.5812381937190972403 ) ) ;
#120 = CARTESIAN_POINT ( 'NONE',  ( 5.976850120765105245, 30.31999464524650989, 5.650000000000002132 ) ) ;
#121 = CARTESIAN_POINT ( 'NONE',  ( 5.976850120765105245, 24.81999464524650634, 4.150000000000001243 ) ) ;
#122 = APPLICATION_PROTOCOL_DEFINITION ( 'draft international standard', 'automotive_design', 1998, #436 ) ;
#123 = PLANE ( 'NONE',  #154 ) ;
#124 = DIRECTION ( 'NONE',  ( 0.000000000000000000, -0.5812381937190971293, 0.8137334712067344489 ) ) ;
#125 = FACE_OUTER_BOUND ( 'NONE', #108, .T. ) ;
#126 = DIRECTION ( 'NONE',  ( 1.000000000000000000, 0.000000000000000000, -0.000000000000000000 ) ) ;
#127 = EDGE_CURVE ( 'NONE', #18, #282, #200, .T. ) ;
#128 = AXIS2_PLACEMENT_3D ( 'NONE', #121, #165, #342 ) ;
#129 = VECTOR ( 'NONE', #301, 1000.000000000000000 ) ;
#130 = VERTEX_POINT ( 'NONE', #335 ) ;
#131 = PLANE ( 'NONE',  #169 ) ;
#132 = ORIENTED_EDGE ( 'NONE', *, *, #235, .F. ) ;
#133 = ADVANCED_FACE ( 'NONE', ( #24 ), #263, .F. ) ;
#134 = DIRECTION ( 'NONE',  ( 1.000000000000000000, 0.000000000000000000, 0.000000000000000000 ) ) ;
#135 = ORIENTED_EDGE ( 'NONE', *, *, #38, .F. ) ;
#136 = CARTESIAN_POINT ( 'NONE',  ( 5.976850120765105245, 22.71999464524650847, 5.650000000000002132 ) ) ;
#137 = DIRECTION ( 'NONE',  ( 1.000000000000000000, 0.000000000000000000, 0.000000000000000000 ) ) ;
#138 = ADVANCED_FACE ( 'NONE', ( #338 ), #123, .T. ) ;
#139 = EDGE_LOOP ( 'NONE', ( #83, #241, #279, #177 ) ) ;
#140 = PRESENTATION_LAYER_ASSIGNMENT (  '', '', ( #93 ) ) ;
#141 = ORIENTED_EDGE ( 'NONE', *, *, #281, .T. ) ;
#142 = ORIENTED_EDGE ( 'NONE', *, *, #240, .F. ) ;
#143 = LINE ( 'NONE', #326, #367 ) ;
#144 = DIRECTION ( 'NONE',  ( -1.748081153644072140E-16, 1.000000000000000000, 0.000000000000000000 ) ) ;
#145 = CARTESIAN_POINT ( 'NONE',  ( 14.73482246715532540, 24.81999464524650634, 4.150000000000001243 ) ) ;
#146 = ORIENTED_EDGE ( 'NONE', *, *, #346, .F. ) ;
#147 = CARTESIAN_POINT ( 'NONE',  ( 8.892326068187754728, 28.81999464524650989, 4.150000000000003020 ) ) ;
#148 = ADVANCED_FACE ( 'NONE', ( #63 ), #117, .T. ) ;
#149 = CARTESIAN_POINT ( 'NONE',  ( 8.892326068187754728, 31.28178795890525876, 0.000000000000000000 ) ) ;
#150 = VERTEX_POINT ( 'NONE', #413 ) ;
#151 = CARTESIAN_POINT ( 'NONE',  ( 14.73482246715532540, 21.35820133158775391, 4.150000000000001243 ) ) ;
#152 = CARTESIAN_POINT ( 'NONE',  ( 14.73482246715532540, 29.91999464524650776, 5.650000000000002132 ) ) ;
#153 = DIRECTION ( 'NONE',  ( 0.000000000000000000, 1.000000000000000000, 6.195440985631452852E-17 ) ) ;
#154 = AXIS2_PLACEMENT_3D ( 'NONE', #29, #303, #236 ) ;
#155 = AXIS2_PLACEMENT_3D ( 'NONE', #62, #340, #166 ) ;
#156 = CARTESIAN_POINT ( 'NONE',  ( 8.892326068187756505, 21.35820133158775391, 0.000000000000000000 ) ) ;
#157 = PRODUCT_DEFINITION ( 'UNKNOWN', '', #336, #164 ) ;
#158 = CARTESIAN_POINT ( 'NONE',  ( 14.73482246715532540, 27.81999464524650989, 4.150000000000001243 ) ) ;
#159 = PRODUCT ( 'Status Light Diffuser', 'Status Light Diffuser', '', ( #314 ) ) ;
#160 = LINE ( 'NONE', #339, #71 ) ;
#161 = LINE ( 'NONE', #100, #129 ) ;
#162 = DIRECTION ( 'NONE',  ( 0.000000000000000000, -1.000000000000000000, 0.000000000000000000 ) ) ;
#163 = LINE ( 'NONE', #156, #354 ) ;
#164 = PRODUCT_DEFINITION_CONTEXT ( 'detailed design', #101, 'design' ) ;
#165 = DIRECTION ( 'NONE',  ( -0.000000000000000000, 0.5812381937190971293, 0.8137334712067344489 ) ) ;
#166 = DIRECTION ( 'NONE',  ( 0.000000000000000000, 0.000000000000000000, 1.000000000000000000 ) ) ;
#167 = EDGE_CURVE ( 'NONE', #170, #414, #172, .T. ) ;
#168 = CARTESIAN_POINT ( 'NONE',  ( 8.892326068187756505, 21.35820133158775391, 4.150000000000001243 ) ) ;
#169 = AXIS2_PLACEMENT_3D ( 'NONE', #274, #206, #134 ) ;
#170 = VERTEX_POINT ( 'NONE', #40 ) ;
#171 =( NAMED_UNIT ( * ) PLANE_ANGLE_UNIT ( ) SI_UNIT ( $, .RADIAN. ) );
#172 = LINE ( 'NONE', #168, #222 ) ;
#173 = VECTOR ( 'NONE', #56, 1000.000000000000000 ) ;
#174 = SURFACE_STYLE_USAGE ( .BOTH. , #280 ) ;
#175 = DIRECTION ( 'NONE',  ( 0.000000000000000000, -6.195440985631452852E-17, 1.000000000000000000 ) ) ;
#176 = VECTOR ( 'NONE', #199, 1000.000000000000000 ) ;
#177 = ORIENTED_EDGE ( 'NONE', *, *, #30, .F. ) ;
#178 = EDGE_CURVE ( 'NONE', #68, #9, #245, .T. ) ;
#179 = ORIENTED_EDGE ( 'NONE', *, *, #178, .T. ) ;
#180 = VERTEX_POINT ( 'NONE', #209 ) ;
#181 = CARTESIAN_POINT ( 'NONE',  ( 8.892326068187756505, 22.31999464524650989, 5.650000000000002132 ) ) ;
#182 = CARTESIAN_POINT ( 'NONE',  ( 14.73482246715532540, 30.31999464524650989, 5.650000000000002132 ) ) ;
#183 = ORIENTED_EDGE ( 'NONE', *, *, #59, .F. ) ;
#184 = VECTOR ( 'NONE', #434, 1000.000000000000000 ) ;
#185 = SURFACE_STYLE_FILL_AREA ( #212 ) ;
#186 = PLANE ( 'NONE',  #265 ) ;
#187 = CARTESIAN_POINT ( 'NONE',  ( -0.9864257323284590928, 14.31999464524650989, 4.150000000000001243 ) ) ;
#188 = LINE ( 'NONE', #250, #389 ) ;
#189 = EDGE_CURVE ( 'NONE', #416, #18, #352, .T. ) ;
#190 = ORIENTED_EDGE ( 'NONE', *, *, #399, .T. ) ;
#191 = ORIENTED_EDGE ( 'NONE', *, *, #167, .T. ) ;
#192 = FACE_OUTER_BOUND ( 'NONE', #75, .T. ) ;
#193 = CARTESIAN_POINT ( 'NONE',  ( 14.73482246715532540, 31.28178795890525876, 16.16574295136114614 ) ) ;
#194 = DIRECTION ( 'NONE',  ( -0.000000000000000000, -0.000000000000000000, -1.000000000000000000 ) ) ;
#195 = EDGE_CURVE ( 'NONE', #46, #324, #77, .T. ) ;
#196 = DIRECTION ( 'NONE',  ( 1.000000000000000000, 0.000000000000000000, 0.000000000000000000 ) ) ;
#197 = DIRECTION ( 'NONE',  ( 0.000000000000000000, -0.000000000000000000, 1.000000000000000000 ) ) ;
#198 = PLANE ( 'NONE',  #128 ) ;
#199 = DIRECTION ( 'NONE',  ( 0.000000000000000000, 0.7071067811865465735, -0.7071067811865485719 ) ) ;
#200 = LINE ( 'NONE', #120, #184 ) ;
#201 = MANIFOLD_SOLID_BREP ( 'PCB Spring', #90 ) ;
#202 = VECTOR ( 'NONE', #268, 999.9999999999998863 ) ;
#203 = LINE ( 'NONE', #411, #404 ) ;
#204 = EDGE_CURVE ( 'NONE', #414, #256, #383, .T. ) ;
#205 = AXIS2_PLACEMENT_3D ( 'NONE', #425, #110, #325 ) ;
#206 = DIRECTION ( 'NONE',  ( -0.000000000000000000, 0.000000000000000000, 1.000000000000000000 ) ) ;
#207 = ORIENTED_EDGE ( 'NONE', *, *, #13, .F. ) ;
#208 = VERTEX_POINT ( 'NONE', #181 ) ;
#209 = CARTESIAN_POINT ( 'NONE',  ( 8.892326068187754728, 27.81999464524650989, 4.150000000000003020 ) ) ;
#210 = DIRECTION ( 'NONE',  ( 1.000000000000000000, 0.000000000000000000, -0.000000000000000000 ) ) ;
#211 = ORIENTED_EDGE ( 'NONE', *, *, #316, .F. ) ;
#212 = FILL_AREA_STYLE ('',( #48 ) ) ;
#213 = ORIENTED_EDGE ( 'NONE', *, *, #30, .T. ) ;
#214 = AXIS2_PLACEMENT_3D ( 'NONE', #312, #306, #72 ) ;
#215 = AXIS2_PLACEMENT_3D ( 'NONE', #85, #17, #144 ) ;
#216 = EDGE_LOOP ( 'NONE', ( #290, #52, #218, #321, #34, #288, #111, #310, #43, #296, #1, #420 ) ) ;
#217 = ORIENTED_EDGE ( 'NONE', *, *, #189, .F. ) ;
#218 = ORIENTED_EDGE ( 'NONE', *, *, #104, .T. ) ;
#219 = ORIENTED_EDGE ( 'NONE', *, *, #392, .T. ) ;
#220 = ORIENTED_EDGE ( 'NONE', *, *, #45, .T. ) ;
#221 = VECTOR ( 'NONE', #255, 1000.000000000000000 ) ;
#222 = VECTOR ( 'NONE', #210, 1000.000000000000000 ) ;
#223 = ORIENTED_EDGE ( 'NONE', *, *, #346, .T. ) ;
#224 = CARTESIAN_POINT ( 'NONE',  ( 5.976850120765105245, 24.81999464524650634, 4.150000000000001243 ) ) ;
#225 = VECTOR ( 'NONE', #358, 1000.000000000000000 ) ;
#226 = LINE ( 'NONE', #230, #344 ) ;
#227 = CARTESIAN_POINT ( 'NONE',  ( 8.892326068187754728, 31.28178795890525876, 0.000000000000000000 ) ) ;
#228 = ADVANCED_FACE ( 'NONE', ( #451 ), #131, .T. ) ;
#229 = VECTOR ( 'NONE', #395, 1000.000000000000000 ) ;
#230 = CARTESIAN_POINT ( 'NONE',  ( 8.892326068187754728, 27.81999464524650989, 4.150000000000001243 ) ) ;
#231 = PLANE ( 'NONE',  #435 ) ;
#232 = DIRECTION ( 'NONE',  ( 1.000000000000000000, 0.000000000000000000, 0.000000000000000000 ) ) ;
#233 = LINE ( 'NONE', #304, #323 ) ;
#234 = DIRECTION ( 'NONE',  ( 1.000000000000000000, 0.000000000000000000, 0.000000000000000000 ) ) ;
#235 = EDGE_CURVE ( 'NONE', #432, #68, #330, .T. ) ;
#236 = DIRECTION ( 'NONE',  ( 0.000000000000000000, 0.7071067811865465735, 0.7071067811865485719 ) ) ;
#237 = CARTESIAN_POINT ( 'NONE',  ( 14.73482246715532540, 31.28178795890525876, 0.000000000000000000 ) ) ;
#238 = EDGE_LOOP ( 'NONE', ( #217, #103, #211, #329 ) ) ;
#239 = AXIS2_PLACEMENT_3D ( 'NONE', #423, #393, #137 ) ;
#240 = EDGE_CURVE ( 'NONE', #414, #130, #297, .T. ) ;
#241 = ORIENTED_EDGE ( 'NONE', *, *, #109, .T. ) ;
#242 = CARTESIAN_POINT ( 'NONE',  ( 8.892326068187756505, 21.35820133158775391, 0.000000000000000000 ) ) ;
#243 = VECTOR ( 'NONE', #295, 1000.000000000000000 ) ;
#244 = VERTEX_POINT ( 'NONE', #147 ) ;
#245 = LINE ( 'NONE', #10, #57 ) ;
#246 = EDGE_LOOP ( 'NONE', ( #223, #141, #220, #400 ) ) ;
#247 = CARTESIAN_POINT ( 'NONE',  ( 5.976850120765105245, 28.81999464524650989, 4.150000000000000355 ) ) ;
#248 = VERTEX_POINT ( 'NONE', #152 ) ;
#249 = FACE_OUTER_BOUND ( 'NONE', #246, .T. ) ;
#250 = CARTESIAN_POINT ( 'NONE',  ( 14.73482246715532540, 29.91999464524650776, 5.650000000000002132 ) ) ;
#251 = CARTESIAN_POINT ( 'NONE',  ( 14.73482246715532540, 21.35820133158775391, 4.150000000000001243 ) ) ;
#252 = ORIENTED_EDGE ( 'NONE', *, *, #286, .T. ) ;
#253 = EDGE_LOOP ( 'NONE', ( #142, #315, #384, #47, #365, #3, #113, #394, #183, #179, #219, #12 ) ) ;
#254 = CARTESIAN_POINT ( 'NONE',  ( 14.73482246715532540, 31.28178795890525876, 4.150000000000003020 ) ) ;
#255 = DIRECTION ( 'NONE',  ( 0.000000000000000000, 1.000000000000000000, 6.195440985631452852E-17 ) ) ;
#256 = VERTEX_POINT ( 'NONE', #89 ) ;
#257 = FACE_OUTER_BOUND ( 'NONE', #216, .T. ) ;
#258 = LINE ( 'NONE', #373, #176 ) ;
#259 = DIRECTION ( 'NONE',  ( 1.748081153644072140E-16, -1.000000000000000000, -6.195440985631452852E-17 ) ) ;
#260 = EDGE_CURVE ( 'NONE', #437, #208, #294, .T. ) ;
#261 = CARTESIAN_POINT ( 'NONE',  ( 8.892326068187756505, 22.31999464524650989, 5.650000000000002132 ) ) ;
#262 = PLANE ( 'NONE',  #155 ) ;
#263 = PLANE ( 'NONE',  #363 ) ;
#264 = CARTESIAN_POINT ( 'NONE',  ( 14.73482246715532540, 30.31999464524650989, 5.650000000000002132 ) ) ;
#265 = AXIS2_PLACEMENT_3D ( 'NONE', #15, #124, #408 ) ;
#266 = DIRECTION ( 'NONE',  ( 1.000000000000000000, 0.000000000000000000, 0.000000000000000000 ) ) ;
#267 = ADVANCED_FACE ( 'NONE', ( #289 ), #49, .F. ) ;
#268 = DIRECTION ( 'NONE',  ( -1.422472145105863829E-16, 0.8137334712067343379, -0.5812381937190972403 ) ) ;
#269 = CARTESIAN_POINT ( 'NONE',  ( 14.73482246715532540, 22.31999464524650989, 5.650000000000002132 ) ) ;
#270 = LINE ( 'NONE', #376, #202 ) ;
#271 = VECTOR ( 'NONE', #266, 1000.000000000000000 ) ;
#272 = ORIENTED_EDGE ( 'NONE', *, *, #412, .F. ) ;
#273 = ADVANCED_FACE ( 'NONE', ( #360 ), #186, .T. ) ;
#274 = CARTESIAN_POINT ( 'NONE',  ( 5.976850120765105245, 22.71999464524650847, 5.650000000000002132 ) ) ;
#275 = PLANE ( 'NONE',  #23 ) ;
#276 = ORIENTED_EDGE ( 'NONE', *, *, #260, .F. ) ;
#277 =( LENGTH_UNIT ( ) NAMED_UNIT ( * ) SI_UNIT ( .MILLI., .METRE. ) );
#278 = VECTOR ( 'NONE', #259, 1000.000000000000000 ) ;
#279 = ORIENTED_EDGE ( 'NONE', *, *, #392, .F. ) ;
#280 = SURFACE_SIDE_STYLE ('',( #185 ) ) ;
#281 = EDGE_CURVE ( 'NONE', #150, #349, #160, .T. ) ;
#282 = VERTEX_POINT ( 'NONE', #264 ) ;
#283 = LINE ( 'NONE', #377, #278 ) ;
#284 = EDGE_LOOP ( 'NONE', ( #415, #213, #36, #132 ) ) ;
#285 = LINE ( 'NONE', #107, #307 ) ;
#286 = EDGE_CURVE ( 'NONE', #170, #35, #233, .T. ) ;
#287 = VECTOR ( 'NONE', #311, 1000.000000000000000 ) ;
#288 = ORIENTED_EDGE ( 'NONE', *, *, #260, .T. ) ;
#289 = FACE_OUTER_BOUND ( 'NONE', #351, .T. ) ;
#290 = ORIENTED_EDGE ( 'NONE', *, *, #74, .F. ) ;
#291 = EDGE_LOOP ( 'NONE', ( #53, #252, #390, #398 ) ) ;
#292 = LINE ( 'NONE', #182, #417 ) ;
#293 = EDGE_LOOP ( 'NONE', ( #362, #361, #191, #402 ) ) ;
#294 = LINE ( 'NONE', #261, #347 ) ;
#295 = DIRECTION ( 'NONE',  ( -1.000000000000000000, 0.000000000000000000, 0.000000000000000000 ) ) ;
#296 = ORIENTED_EDGE ( 'NONE', *, *, #372, .T. ) ;
#297 = LINE ( 'NONE', #334, #11 ) ;
#298 =( LENGTH_UNIT ( ) NAMED_UNIT ( * ) SI_UNIT ( .MILLI., .METRE. ) );
#299 = DIRECTION ( 'NONE',  ( -0.000000000000000000, -0.000000000000000000, -1.000000000000000000 ) ) ;
#300 = CARTESIAN_POINT ( 'NONE',  ( 5.976850120765105245, 29.91999464524650776, 5.650000000000002132 ) ) ;
#301 = DIRECTION ( 'NONE',  ( 0.000000000000000000, 1.000000000000000000, 0.000000000000000000 ) ) ;
#302 = EDGE_CURVE ( 'NONE', #416, #248, #442, .T. ) ;
#303 = DIRECTION ( 'NONE',  ( 0.000000000000000000, 0.7071067811865485719, -0.7071067811865465735 ) ) ;
#304 = CARTESIAN_POINT ( 'NONE',  ( 8.892326068187756505, 21.35820133158775391, 16.16574295136114614 ) ) ;
#305 = CARTESIAN_POINT ( 'NONE',  ( 5.976850120765105245, 23.81999464524650634, 4.150000000000000355 ) ) ;
#306 = DIRECTION ( 'NONE',  ( 0.000000000000000000, -6.195440985631452852E-17, 1.000000000000000000 ) ) ;
#307 = VECTOR ( 'NONE', #51, 1000.000000000000000 ) ;
#308 = VECTOR ( 'NONE', #396, 1000.000000000000000 ) ;
#309 = ADVANCED_FACE ( 'NONE', ( #61 ), #198, .T. ) ;
#310 = ORIENTED_EDGE ( 'NONE', *, *, #381, .T. ) ;
#311 = DIRECTION ( 'NONE',  ( -0.000000000000000000, -0.000000000000000000, -1.000000000000000000 ) ) ;
#312 = CARTESIAN_POINT ( 'NONE',  ( -0.9864257323284590928, 14.31999464524650989, 4.150000000000001243 ) ) ;
#313 = VERTEX_POINT ( 'NONE', #446 ) ;
#314 = PRODUCT_CONTEXT ( 'NONE', #436, 'mechanical' ) ;
#315 = ORIENTED_EDGE ( 'NONE', *, *, #204, .T. ) ;
#316 = EDGE_CURVE ( 'NONE', #282, #248, #188, .T. ) ;
#317 = ORIENTED_EDGE ( 'NONE', *, *, #127, .T. ) ;
#318 = PRESENTATION_STYLE_ASSIGNMENT (( #174 ) ) ;
#319 = DIRECTION ( 'NONE',  ( -0.000000000000000000, 0.7071067811865465735, 0.7071067811865485719 ) ) ;
#320 = EDGE_LOOP ( 'NONE', ( #207, #20, #426, #86 ) ) ;
#321 = ORIENTED_EDGE ( 'NONE', *, *, #286, .F. ) ;
#322 = CARTESIAN_POINT ( 'NONE',  ( 8.892326068187754728, 30.31999464524650989, 5.650000000000002132 ) ) ;
#323 = VECTOR ( 'NONE', #194, 1000.000000000000000 ) ;
#324 = VERTEX_POINT ( 'NONE', #149 ) ;
#325 = DIRECTION ( 'NONE',  ( 1.000000000000000000, 0.000000000000000000, 0.000000000000000000 ) ) ;
#326 = CARTESIAN_POINT ( 'NONE',  ( 8.892326068187754728, 31.28178795890525876, 4.150000000000003020 ) ) ;
#327 = LINE ( 'NONE', #251, #221 ) ;
#328 = EDGE_LOOP ( 'NONE', ( #359, #317, #135, #146 ) ) ;
#329 = ORIENTED_EDGE ( 'NONE', *, *, #127, .F. ) ;
#330 = LINE ( 'NONE', #224, #308 ) ;
#331 = EDGE_CURVE ( 'NONE', #428, #324, #433, .T. ) ;
#332 = DIRECTION ( 'NONE',  ( 0.000000000000000000, -0.7071067811865485719, -0.7071067811865465735 ) ) ;
#333 = VECTOR ( 'NONE', #27, 1000.000000000000000 ) ;
#334 = CARTESIAN_POINT ( 'NONE',  ( 14.73482246715532540, 21.35820133158775391, 4.150000000000001243 ) ) ;
#335 = CARTESIAN_POINT ( 'NONE',  ( 14.73482246715532540, 23.81999464524650634, 4.150000000000000355 ) ) ;
#336 = PRODUCT_DEFINITION_FORMATION_WITH_SPECIFIED_SOURCE ( 'ANY', '', #159, .NOT_KNOWN. ) ;
#337 = CARTESIAN_POINT ( 'NONE',  ( 5.976850120765105245, 29.91999464524650776, 5.650000000000002132 ) ) ;
#338 = FACE_OUTER_BOUND ( 'NONE', #328, .T. ) ;
#339 = CARTESIAN_POINT ( 'NONE',  ( 14.73482246715532540, 21.35820133158775391, 4.150000000000001243 ) ) ;
#340 = DIRECTION ( 'NONE',  ( -1.000000000000000000, 0.000000000000000000, 0.000000000000000000 ) ) ;
#341 = CARTESIAN_POINT ( 'NONE',  ( 5.976850120765105245, 22.31999464524650989, 5.650000000000002132 ) ) ;
#342 = DIRECTION ( 'NONE',  ( 0.000000000000000000, -0.8137334712067344489, 0.5812381937190971293 ) ) ;
#343 =( NAMED_UNIT ( * ) PLANE_ANGLE_UNIT ( ) SI_UNIT ( $, .RADIAN. ) );
#344 = VECTOR ( 'NONE', #119, 999.9999999999998863 ) ;
#345 = SHAPE_DEFINITION_REPRESENTATION ( #371, #421 ) ;
#346 = EDGE_CURVE ( 'NONE', #244, #150, #403, .T. ) ;
#347 = VECTOR ( 'NONE', #58, 1000.000000000000000 ) ;
#348 = ADVANCED_FACE ( 'NONE', ( #257 ), #82, .F. ) ;
#349 = VERTEX_POINT ( 'NONE', #254 ) ;
#350 = APPLICATION_PROTOCOL_DEFINITION ( 'draft international standard', 'automotive_design', 1998, #101 ) ;
#351 = EDGE_LOOP ( 'NONE', ( #449, #353, #272, #387 ) ) ;
#352 = LINE ( 'NONE', #44, #229 ) ;
#353 = ORIENTED_EDGE ( 'NONE', *, *, #331, .F. ) ;
#354 = VECTOR ( 'NONE', #196, 1000.000000000000000 ) ;
#355 = CARTESIAN_POINT ( 'NONE',  ( 14.73482246715532540, 22.71999464524650847, 5.650000000000002132 ) ) ;
#356 = DIRECTION ( 'NONE',  ( 0.000000000000000000, -0.8137334712067343379, 0.5812381937190972403 ) ) ;
#357 = ADVANCED_FACE ( 'NONE', ( #67 ), #275, .T. ) ;
#358 = DIRECTION ( 'NONE',  ( -1.000000000000000000, 0.000000000000000000, 0.000000000000000000 ) ) ;
#359 = ORIENTED_EDGE ( 'NONE', *, *, #55, .F. ) ;
#360 = FACE_OUTER_BOUND ( 'NONE', #37, .T. ) ;
#361 = ORIENTED_EDGE ( 'NONE', *, *, #33, .T. ) ;
#362 = ORIENTED_EDGE ( 'NONE', *, *, #399, .F. ) ;
#363 = AXIS2_PLACEMENT_3D ( 'NONE', #444, #60, #197 ) ;
#364 = EDGE_CURVE ( 'NONE', #35, #256, #163, .T. ) ;
#365 = ORIENTED_EDGE ( 'NONE', *, *, #281, .F. ) ;
#366 = CARTESIAN_POINT ( 'NONE',  ( 5.976850120765105245, 22.31999464524650989, 5.650000000000002132 ) ) ;
#367 = VECTOR ( 'NONE', #16, 1000.000000000000000 ) ;
#368 = DIRECTION ( 'NONE',  ( 1.748081153644072140E-16, -1.000000000000000000, -6.195440985631452852E-17 ) ) ;
#369 = DIRECTION ( 'NONE',  ( 0.000000000000000000, 0.7071067811865465735, -0.7071067811865485719 ) ) ;
#370 = VECTOR ( 'NONE', #424, 1000.000000000000000 ) ;
#371 = PRODUCT_DEFINITION_SHAPE ( 'NONE', 'NONE',  #157 ) ;
#372 = EDGE_CURVE ( 'NONE', #180, #416, #226, .T. ) ;
#373 = CARTESIAN_POINT ( 'NONE',  ( 14.73482246715532540, 22.31999464524650989, 5.650000000000002132 ) ) ;
#374 = CARTESIAN_POINT ( 'NONE',  ( 14.73482246715532540, 22.71999464524650847, 5.650000000000002132 ) ) ;
#375 = DIRECTION ( 'NONE',  ( 0.000000000000000000, -0.000000000000000000, -1.000000000000000000 ) ) ;
#376 = CARTESIAN_POINT ( 'NONE',  ( 8.892326068187756505, 24.81999464524650634, 4.150000000000001243 ) ) ;
#377 = CARTESIAN_POINT ( 'NONE',  ( 8.892326068187754728, 31.28178795890525876, 4.150000000000003020 ) ) ;
#378 = UNCERTAINTY_MEASURE_WITH_UNIT (LENGTH_MEASURE( 1.000000000000000082E-05 ), #298, 'distance_accuracy_value', 'NONE');
#379 = AXIS2_PLACEMENT_3D ( 'NONE', #366, #332, #369 ) ;
#380 = DIRECTION ( 'NONE',  ( -0.000000000000000000, -0.8137334712067343379, -0.5812381937190972403 ) ) ;
#381 = EDGE_CURVE ( 'NONE', #313, #432, #270, .T. ) ;
#382 =( GEOMETRIC_REPRESENTATION_CONTEXT ( 3 ) GLOBAL_UNCERTAINTY_ASSIGNED_CONTEXT ( ( #378 ) ) GLOBAL_UNIT_ASSIGNED_CONTEXT ( ( #298, #343, #443 ) ) REPRESENTATION_CONTEXT ( 'NONE', 'WORKASPACE' ) );
#383 = LINE ( 'NONE', #2, #287 ) ;
#384 = ORIENTED_EDGE ( 'NONE', *, *, #412, .T. ) ;
#385 = ADVANCED_FACE ( 'NONE', ( #25 ), #262, .F. ) ;
#386 = ORIENTED_EDGE ( 'NONE', *, *, #13, .T. ) ;
#387 = ORIENTED_EDGE ( 'NONE', *, *, #364, .F. ) ;
#388 = DIRECTION ( 'NONE',  ( -0.000000000000000000, -0.000000000000000000, -1.000000000000000000 ) ) ;
#389 = VECTOR ( 'NONE', #54, 1000.000000000000000 ) ;
#390 = ORIENTED_EDGE ( 'NONE', *, *, #364, .T. ) ;
#391 = ORIENTED_EDGE ( 'NONE', *, *, #109, .F. ) ;
#392 = EDGE_CURVE ( 'NONE', #9, #84, #22, .T. ) ;
#393 = DIRECTION ( 'NONE',  ( 0.000000000000000000, -6.195440985631452852E-17, 1.000000000000000000 ) ) ;
#394 = ORIENTED_EDGE ( 'NONE', *, *, #441, .T. ) ;
#395 = DIRECTION ( 'NONE',  ( -1.748081153644072140E-16, 1.000000000000000000, 0.000000000000000000 ) ) ;
#396 = DIRECTION ( 'NONE',  ( 1.000000000000000000, 0.000000000000000000, 0.000000000000000000 ) ) ;
#397 = DIRECTION ( 'NONE',  ( 1.000000000000000000, 0.000000000000000000, 0.000000000000000000 ) ) ;
#398 = ORIENTED_EDGE ( 'NONE', *, *, #204, .F. ) ;
#399 = EDGE_CURVE ( 'NONE', #437, #130, #438, .T. ) ;
#400 = ORIENTED_EDGE ( 'NONE', *, *, #74, .T. ) ;
#401 = VECTOR ( 'NONE', #96, 1000.000000000000000 ) ;
#402 = ORIENTED_EDGE ( 'NONE', *, *, #240, .T. ) ;
#403 = LINE ( 'NONE', #247, #370 ) ;
#404 = VECTOR ( 'NONE', #380, 999.9999999999998863 ) ;
#405 = CARTESIAN_POINT ( 'NONE',  ( 8.892326068187756505, 24.81999464524650634, 4.150000000000003020 ) ) ;
#406 = VECTOR ( 'NONE', #397, 1000.000000000000000 ) ;
#407 = MECHANICAL_DESIGN_GEOMETRIC_PRESENTATION_REPRESENTATION (  '', ( #93 ), #448 ) ;
#408 = DIRECTION ( 'NONE',  ( 0.000000000000000000, -0.8137334712067344489, -0.5812381937190971293 ) ) ;
#409 = DIRECTION ( 'NONE',  ( 0.000000000000000000, 0.000000000000000000, 1.000000000000000000 ) ) ;
#410 = PLANE ( 'NONE',  #379 ) ;
#411 = CARTESIAN_POINT ( 'NONE',  ( 14.73482246715532540, 27.81999464524650989, 4.150000000000001243 ) ) ;
#412 = EDGE_CURVE ( 'NONE', #256, #428, #161, .T. ) ;
#413 = CARTESIAN_POINT ( 'NONE',  ( 14.73482246715532540, 28.81999464524650989, 4.150000000000000355 ) ) ;
#414 = VERTEX_POINT ( 'NONE', #151 ) ;
#415 = ORIENTED_EDGE ( 'NONE', *, *, #381, .F. ) ;
#416 = VERTEX_POINT ( 'NONE', #95 ) ;
#417 = VECTOR ( 'NONE', #319, 1000.000000000000000 ) ;
#418 = CARTESIAN_POINT ( 'NONE',  ( 8.892326068187754728, 31.28178795890525876, 4.150000000000003020 ) ) ;
#419 = EDGE_CURVE ( 'NONE', #84, #130, #258, .T. ) ;
#420 = ORIENTED_EDGE ( 'NONE', *, *, #55, .T. ) ;
#421 = ADVANCED_BREP_SHAPE_REPRESENTATION ( 'Status Light Diffuser', ( #201, #66 ), #382 ) ;
#422 = VECTOR ( 'NONE', #388, 1000.000000000000000 ) ;
#423 = CARTESIAN_POINT ( 'NONE',  ( -0.9864257323284590928, 14.31999464524650989, 4.150000000000001243 ) ) ;
#424 = DIRECTION ( 'NONE',  ( 1.000000000000000000, 0.000000000000000000, 0.000000000000000000 ) ) ;
#425 = CARTESIAN_POINT ( 'NONE',  ( 0.000000000000000000, 0.000000000000000000, 0.000000000000000000 ) ) ;
#426 = ORIENTED_EDGE ( 'NONE', *, *, #235, .T. ) ;
#427 = LINE ( 'NONE', #6, #64 ) ;
#428 = VERTEX_POINT ( 'NONE', #237 ) ;
#429 = EDGE_CURVE ( 'NONE', #180, #432, #447, .T. ) ;
#430 = PLANE ( 'NONE',  #239 ) ;
#431 = CARTESIAN_POINT ( 'NONE',  ( 14.73482246715532540, 31.28178795890525876, 0.000000000000000000 ) ) ;
#432 = VERTEX_POINT ( 'NONE', #405 ) ;
#433 = LINE ( 'NONE', #431, #243 ) ;
#434 = DIRECTION ( 'NONE',  ( 1.000000000000000000, 0.000000000000000000, 0.000000000000000000 ) ) ;
#435 = AXIS2_PLACEMENT_3D ( 'NONE', #193, #162, #375 ) ;
#436 = APPLICATION_CONTEXT ( 'automotive_design' ) ;
#437 = VERTEX_POINT ( 'NONE', #28 ) ;
#438 = LINE ( 'NONE', #305, #271 ) ;
#439 = CARTESIAN_POINT ( 'NONE',  ( 8.892326068187754728, 31.28178795890525876, 4.150000000000003020 ) ) ;
#440 = LINE ( 'NONE', #26, #401 ) ;
#441 = EDGE_CURVE ( 'NONE', #248, #88, #203, .T. ) ;
#442 = LINE ( 'NONE', #300, #333 ) ;
#443 =( NAMED_UNIT ( * ) SI_UNIT ( $, .STERADIAN. ) SOLID_ANGLE_UNIT ( ) );
#444 = CARTESIAN_POINT ( 'NONE',  ( 8.892326068187756505, 21.35820133158775391, 16.16574295136114614 ) ) ;
#445 = CARTESIAN_POINT ( 'NONE',  ( 0.000000000000000000, 0.000000000000000000, 0.000000000000000000 ) ) ;
#446 = CARTESIAN_POINT ( 'NONE',  ( 8.892326068187756505, 22.71999464524650847, 5.650000000000002132 ) ) ;
#447 = LINE ( 'NONE', #439, #80 ) ;
#448 =( GEOMETRIC_REPRESENTATION_CONTEXT ( 3 ) GLOBAL_UNCERTAINTY_ASSIGNED_CONTEXT ( ( #99 ) ) GLOBAL_UNIT_ASSIGNED_CONTEXT ( ( #277, #171, #69 ) ) REPRESENTATION_CONTEXT ( 'NONE', 'WORKASPACE' ) );
#449 = ORIENTED_EDGE ( 'NONE', *, *, #104, .F. ) ;
#450 = EDGE_CURVE ( 'NONE', #349, #428, #91, .T. ) ;
#451 = FACE_OUTER_BOUND ( 'NONE', #139, .T. ) ;
ENDSEC;
END-ISO-10303-21;
